<svg width="223" height="46" viewBox="0 0 223 46" fill="none" xmlns="http://www.w3.org/2000/svg">
<path d="M139.931 16.415C139.431 15.9953 138.794 15.679 138.017 15.4721C137.485 15.3383 136.93 15.2714 136.355 15.2714C133.606 15.2714 131.191 16.3651 129.107 18.55C128.176 19.6205 127.467 20.7811 126.979 22.0292L126.514 15.8055H113.217C113.217 15.2897 113.449 14.8298 113.813 14.5233C113.859 8.35912 114.368 4.65845 115.339 3.42611C115.871 2.80203 116.557 2.48939 117.4 2.48939C118.507 2.48939 119.417 3.33731 120.126 5.03192C121.012 7.0842 121.588 8.28856 121.854 8.645C122.607 9.49292 123.493 9.93939 124.514 9.98318C126.332 9.98318 127.528 9.2703 128.104 7.8421C128.237 7.48566 128.303 7.1061 128.303 6.70465C128.303 4.74118 127.15 3.18037 124.846 2.02102C123.161 1.17432 121.123 0.749756 118.728 0.749756C113.541 0.749756 109.795 2.6232 107.491 6.37132C106.072 8.69123 105.364 11.5464 105.364 14.9369V15.8067H99.9771V17.6132H105.364V39.3611C105.312 40.7077 104.718 41.6615 103.591 42.226C103.109 42.4668 102.53 42.6372 101.852 42.7357C101.384 42.8038 100.873 42.8403 100.311 42.8403V44.5799H113.216V42.8403C113.216 42.3269 113.447 41.8683 113.808 41.5617V18.8249C113.447 18.5183 113.216 18.0597 113.216 17.5463H118.733V39.3611C118.733 40.0776 118.629 40.6785 118.422 41.1688C118.063 42.0228 117.391 42.5362 116.406 42.7065C115.962 42.7965 115.452 42.8403 114.877 42.8403V44.5799H133.694C133.694 43.5544 133.406 42.9972 132.83 42.9072C132.608 42.8634 132.365 42.8403 132.099 42.8403H127.179V28.3868C127.488 23.7032 128.619 20.848 130.57 19.8212C130.879 19.6874 131.168 19.6205 131.434 19.6205C131.921 19.6205 132.453 20.1339 133.03 21.1594C133.613 22.2056 134.235 22.9623 134.89 23.4331C135.479 21.7786 136.312 20.2665 137.39 18.91C138.161 17.9612 139.008 17.1303 139.931 16.4137V16.415Z" fill="#598017"/>
<path d="M152.118 43.3088C148.57 43.3088 146.288 41.0339 145.269 36.4829C144.87 34.6095 144.648 32.3784 144.604 29.7908L150.722 29.9915C154.805 30.1193 157.908 29.8005 160.032 29.0378C158.714 27.4356 158.042 25.5281 158.042 23.3676C158.042 21.5428 158.471 19.3761 160.01 17.493C159.353 17.0161 158.611 16.5854 157.77 16.2071C155.598 15.2704 153.137 14.802 150.389 14.802C147.265 14.802 144.573 15.4711 142.311 16.8068C141.827 17.0927 141.364 17.4102 140.921 17.7569C140.111 18.3883 139.366 19.1207 138.687 19.9552C137.721 21.1693 136.978 22.5184 136.449 24.0001C136.263 24.5245 136.102 25.0646 135.972 25.6218C135.655 26.9612 135.496 28.3955 135.496 29.9271C135.496 36.3953 137.911 40.9013 142.744 43.4439C145.048 44.6482 147.664 45.2504 150.59 45.2504C153.517 45.2504 156.09 44.6361 158.11 43.4159V41.2042C157.303 41.832 156.392 42.3332 155.378 42.7067C154.314 43.1081 153.228 43.3088 152.12 43.3088H152.118ZM150.389 16.5416C153.225 16.6317 154.666 19.0623 154.711 23.8359C154.711 25.9332 154.09 27.2264 152.849 27.7166C151.962 28.0293 150.632 28.1412 148.86 28.0512L144.605 27.8505C144.915 20.4455 146.843 16.6755 150.391 16.5416H150.389Z" fill="#598017"/>
<path d="M177.284 41.1687C177.514 41.1687 177.749 41.1517 177.98 41.1189C178.009 41.114 178.038 41.1116 178.069 41.1079C179.07 41.0191 179.547 40.7344 179.547 39.3598V29.9828C178.257 29.0254 176.409 28.0023 174 26.9135C172.758 26.3782 171.872 25.9549 171.34 25.6422C168.681 24.304 167.351 22.6751 167.351 20.7579C167.351 20.3126 167.418 19.8662 167.551 19.4197C168.216 17.5462 169.966 16.6095 172.804 16.6095C177.015 16.6545 179.21 18.7068 179.387 22.7664H179.548V16.5329C177.617 15.3808 174.995 14.803 171.674 14.803C169.546 14.803 167.618 15.0937 165.889 15.6728C164.514 16.1193 163.371 16.702 162.456 17.4209C162.007 17.7725 161.612 18.1582 161.273 18.5754C160.229 19.8625 159.706 21.4598 159.706 23.3685C159.706 25.2773 160.281 26.7809 161.434 28.1191C161.483 28.1762 161.537 28.2334 161.59 28.2918C161.927 28.6555 162.359 29.029 162.885 29.411C164.096 30.2918 165.805 31.2212 168.016 32.2017C169.389 32.782 170.387 33.2504 171.008 33.6068C173.844 35.1238 175.263 37.0192 175.263 39.2953C175.263 39.5629 175.24 39.8537 175.196 40.1651C174.753 42.3062 173.046 43.3767 170.077 43.3767C166.898 43.35 164.662 42.3329 163.367 40.3305C163.008 39.7746 162.72 39.142 162.506 38.434C162.417 38.1371 162.338 37.8282 162.274 37.5033C162.161 36.9328 162.087 36.3209 162.053 35.6676C162.043 35.4742 162.035 35.2783 162.033 35.0788H159.772V45.2502C160.126 45.2502 160.437 45.2271 160.703 45.1833C161.278 45.0044 161.567 44.3366 161.567 43.176C164.227 44.5592 167.506 45.2502 171.408 45.2502C172.93 45.2502 174.341 45.1005 175.641 44.8025C175.632 44.7295 175.626 44.6565 175.626 44.5811V42.8415C175.626 41.9181 176.369 41.1699 177.287 41.1699L177.284 41.1687Z" fill="#598017"/>
<path d="M199.227 42.5059C198.783 42.7298 198.185 42.8405 197.431 42.8405V44.5801H212.325C212.325 43.5546 212.036 42.9974 211.461 42.9074C211.195 42.8636 210.929 42.8405 210.663 42.8405H208.469V25.7094C208.469 20.1328 206.496 16.6755 202.551 15.3373C201.575 14.9808 200.512 14.802 199.36 14.802C195.769 14.802 192.909 16.1852 190.782 18.9504C190.338 19.5757 189.961 20.1997 189.652 20.8238V1.08447H177.284V2.8241H181.207V39.3612C181.207 41.4585 180.21 42.596 178.215 42.7736C177.904 42.8186 177.594 42.8405 177.284 42.8405V44.5801H192.91C192.91 43.5546 192.622 42.9974 192.046 42.9074C191.824 42.8636 191.581 42.8405 191.315 42.8405H189.653V26.7799C189.653 22.8542 190.849 20.2447 193.243 18.9504C193.996 18.5489 194.727 18.3482 195.437 18.3482C198.14 18.3482 199.648 20.0209 199.958 23.3676C200.001 23.7252 200.024 24.1267 200.024 24.5719V39.36C200.024 41.1446 199.758 42.1933 199.227 42.5047V42.5059Z" fill="#598017"/>
<path d="M77.9142 15.8057H71.1787V17.4784H76.3403C76.7683 16.8531 77.2917 16.2947 77.9142 15.8057Z" fill="#92B65B"/>
<path d="M27.6008 37.1532C27.6226 34.1618 28.8253 31.7883 31.1849 30.0378V25.7106C31.1849 25.4722 31.1801 25.2386 31.1728 25.0087C29.8879 24.123 29.1964 22.7119 29.1964 20.8932C29.1964 20.1559 29.3342 19.4455 29.6026 18.7691C28.6283 17.1475 27.2067 16.0039 25.3331 15.3397C24.2693 14.9833 23.1608 14.8044 22.0088 14.8044C18.7729 14.8044 16.024 16.0988 13.7635 18.6852C13.0987 19.4443 12.5668 20.2241 12.1679 21.027L11.8355 15.8069H0V17.5465H3.85611V39.3612C3.85611 41.4135 2.90236 42.5509 0.99727 42.7736C0.686605 42.8186 0.354182 42.8405 0 42.8405V44.5801H15.5598C15.5598 43.5546 15.2709 42.9974 14.6955 42.9074C14.4731 42.8636 14.2301 42.8405 13.9642 42.8405H12.3021L12.3686 25.7094C12.678 22.1851 13.9642 19.8652 16.2247 18.7496C16.8448 18.4382 17.4879 18.2813 18.1527 18.2813C20.6791 18.2813 22.1648 19.7764 22.6072 22.7642C22.6954 23.3445 22.7402 23.9466 22.7402 24.5707V39.3588C22.7402 41.2322 22.2518 42.3259 21.2775 42.6373C20.8339 42.7711 20.302 42.838 19.6819 42.838V44.5777H30.6301C28.6331 42.8831 27.6008 40.3721 27.6008 37.1496V37.1532Z" fill="#92B65B"/>
<path d="M58.6513 38.2235C58.3854 41.3013 57.6093 42.8634 56.3244 42.9071C55.3489 42.8183 54.8617 41.7028 54.8617 39.5617V26.6544L52.0742 19.1508H50.6333C49.7158 19.1508 48.9724 18.4027 48.9724 17.4793V15.8638C48.4054 15.6326 47.7974 15.4344 47.1495 15.2713C45.8198 14.9599 44.3789 14.803 42.828 14.803C36.7984 14.803 33.0088 16.1193 31.4579 18.7506C31.059 19.4197 30.8595 20.1338 30.8595 20.8917C30.8595 22.6313 31.6791 23.725 33.3195 24.1702C33.7184 24.304 34.139 24.3709 34.5827 24.3709C36.4878 24.3709 37.7739 23.4342 38.4388 21.5608C38.527 21.2931 38.66 20.8479 38.8377 20.2226C39.3248 18.4392 39.945 17.3224 40.6993 16.8772C41.1864 16.6545 41.7401 16.5426 42.3614 16.5426C44.4442 16.5426 45.7074 17.8139 46.151 20.3564C46.3275 21.2931 46.4169 22.4087 46.4169 23.7019V28.0509C38.8063 28.2006 33.7317 29.6057 31.1859 32.2626C29.9203 33.5837 29.2772 35.2114 29.2627 37.1518C29.2627 39.5678 29.907 41.451 31.1859 42.8098C31.1956 42.8196 31.2028 42.8293 31.2125 42.839C31.9148 43.5762 32.8069 44.1565 33.89 44.5787C34.0713 44.6492 34.2563 44.7173 34.4485 44.7794C35.4675 45.0908 36.5978 45.2477 37.8392 45.2477C41.6059 45.2477 44.3777 43.8208 46.151 40.9656C46.5052 40.3865 46.7929 39.7843 47.0153 39.159C47.9461 42.996 50.1836 45.0239 53.7315 45.249C56.9663 45.249 58.985 44.0677 59.7828 41.7028C59.8807 41.3743 59.9702 41.0118 60.0499 40.6164L59.1687 38.243L58.6538 38.2235H58.6513ZM46.4169 36.417C45.5744 39.5398 44.223 41.4583 42.3614 42.1724C41.9625 42.3062 41.6071 42.3731 41.2976 42.3731C39.0807 42.2843 37.9504 40.2989 37.9069 36.417C37.9069 33.473 39.1036 31.5545 41.4971 30.6616C42.7821 30.2601 44.4224 30.0156 46.4169 29.9256V36.417Z" fill="#92B65B"/>
<path d="M75.2464 21.0465L68.7853 37.6873L61.4708 17.4784H65.9917V15.8057H50.6313V17.4784H53.2242L56.5207 26.3517L60.3333 36.6155L61.6013 40.0303C61.6569 40.1763 61.7125 40.3174 61.7669 40.4561C62.6639 42.7371 63.3855 44.068 63.9283 44.4463C64.4154 44.7577 65.125 44.9147 66.0558 44.9147H68.4492L76.2956 24.1644C75.632 23.3518 75.2694 22.2983 75.2428 21.0465H75.2464Z" fill="#92B65B"/>
<path d="M100.311 41.169C100.57 41.169 100.807 41.1605 101.027 41.1459C100.947 40.7006 100.906 40.1751 100.906 39.5607V25.5755C100.906 22.915 100.319 20.7435 99.1493 19.0586C99.0356 18.8895 98.401 18.1316 98.401 18.1316C97.1402 16.7813 95.4056 15.8275 93.1922 15.2704C91.8625 14.9589 90.4216 14.802 88.8707 14.802C86.829 14.802 85.046 14.9529 83.5181 15.2558C82.7711 15.403 82.0857 15.5867 81.4619 15.8069C79.5919 16.465 78.2707 17.4455 77.5018 18.7508C77.1029 19.4199 76.9035 20.134 76.9035 20.8919C76.9035 21.3469 76.9615 21.7569 77.0739 22.1231C77.2794 22.7958 77.6735 23.3189 78.2574 23.6936C78.5716 23.8955 78.9403 24.0549 79.3646 24.1705C79.7635 24.3043 80.1842 24.3712 80.6278 24.3712C82.5329 24.3712 83.8191 23.4345 84.4839 21.561C84.5722 21.2934 84.7052 20.8481 84.8829 20.2228C85.37 18.4394 85.9901 17.3226 86.7444 16.8774C87.2316 16.6548 87.7852 16.5429 88.4065 16.5429C90.4905 16.5429 91.7537 17.8141 92.1962 20.3567C92.3727 21.2934 92.4621 22.4089 92.4621 23.7021V28.0512C81.0691 28.275 75.3514 31.3078 75.3066 37.152C75.3066 41.1227 77.0352 43.6653 80.4937 44.7808C81.5127 45.0923 82.6441 45.2492 83.8844 45.2492C87.6522 45.2492 90.4228 43.8222 92.1962 40.967C92.5503 40.388 92.838 39.7858 93.0605 39.1605C93.897 42.6093 95.7936 44.5911 98.7419 45.1215C98.6839 44.9511 98.6512 44.7699 98.6512 44.5813V42.8417C98.6512 41.9183 99.3946 41.1702 100.312 41.1702L100.311 41.169ZM92.4609 36.416C91.6184 39.5388 90.2669 41.4573 88.4053 42.1714C88.0064 42.3052 87.651 42.3721 87.3416 42.3721C85.1246 42.2833 83.9944 40.2979 83.9509 36.416C83.9509 33.472 85.1476 31.5536 87.541 30.6606C88.826 30.2592 90.4664 30.0146 92.4609 29.9246V36.416Z" fill="#92B65B"/>
<path d="M219.074 44.5813C220.964 44.5813 222.496 43.0394 222.496 41.1373C222.496 39.2353 220.964 37.6934 219.074 37.6934C217.184 37.6934 215.652 39.2353 215.652 41.1373C215.652 43.0394 217.184 44.5813 219.074 44.5813Z" fill="#92B65B"/>
</svg>
