<svg width="214" height="59" viewBox="0 0 214 59" fill="none" xmlns="http://www.w3.org/2000/svg">
<path d="M132.009 23.8318C131.574 23.4659 131.018 23.1901 130.341 23.0098C129.877 22.8931 129.393 22.8347 128.891 22.8347C126.495 22.8347 124.389 23.7883 122.572 25.6934C121.76 26.6268 121.141 27.6387 120.717 28.727L120.311 23.3004H108.717C108.717 22.8507 108.919 22.4497 109.237 22.1824C109.277 16.8078 109.72 13.5811 110.567 12.5066C111.03 11.9624 111.629 11.6898 112.364 11.6898C113.329 11.6898 114.123 12.4291 114.741 13.9067C115.513 15.6961 116.016 16.7462 116.248 17.057C116.904 17.7963 117.677 18.1856 118.567 18.2238C120.152 18.2238 121.195 17.6022 121.697 16.357C121.813 16.0462 121.871 15.7152 121.871 15.3652C121.871 13.6532 120.865 12.2923 118.856 11.2814C117.387 10.5432 115.61 10.173 113.522 10.173C108.999 10.173 105.733 11.8065 103.724 15.0745C102.487 17.0973 101.869 19.5868 101.869 22.5431V23.3015H97.1726V24.8766H101.869V43.8391C101.824 45.0133 101.306 45.8449 100.324 46.337C99.9035 46.5471 99.3986 46.6956 98.8073 46.7815C98.3995 46.8409 97.9536 46.8727 97.4635 46.8727V48.3895H108.716V46.8727C108.716 46.4251 108.917 46.0252 109.232 45.7579V25.9331C108.917 25.6658 108.716 25.2659 108.716 24.8183H113.526V43.8391C113.526 44.4638 113.436 44.9878 113.255 45.4153C112.942 46.1599 112.356 46.6075 111.497 46.756C111.111 46.8345 110.666 46.8727 110.164 46.8727V48.3895H126.572C126.572 47.4954 126.32 47.0095 125.818 46.931C125.624 46.8929 125.412 46.8727 125.18 46.8727H120.891V34.2703C121.16 30.1866 122.146 27.6971 123.847 26.8018C124.117 26.6852 124.369 26.6268 124.601 26.6268C125.025 26.6268 125.489 27.0744 125.992 27.9686C126.501 28.8808 127.043 29.5406 127.614 29.9511C128.127 28.5085 128.853 27.1901 129.794 26.0074C130.466 25.18 131.205 24.4555 132.009 23.8308V23.8318Z" fill="#598017"/>
<path d="M142.636 47.2811C139.542 47.2811 137.552 45.2976 136.664 41.3294C136.316 39.6959 136.122 37.7506 136.084 35.4944L141.418 35.6695C144.979 35.7808 147.684 35.5029 149.536 34.8379C148.387 33.4409 147.801 31.7777 147.801 29.8939C147.801 28.3028 148.175 26.4136 149.517 24.7717C148.944 24.3559 148.297 23.9804 147.564 23.6505C145.67 22.8337 143.524 22.4254 141.128 22.4254C138.404 22.4254 136.057 23.0087 134.084 24.1734C133.663 24.4227 133.259 24.6995 132.872 25.0018C132.166 25.5523 131.517 26.1909 130.925 26.9185C130.082 27.9771 129.434 29.1535 128.974 30.4454C128.811 30.9026 128.671 31.3736 128.557 31.8594C128.281 33.0272 128.142 34.2778 128.142 35.6132C128.142 41.2531 130.248 45.182 134.462 47.3989C136.471 48.449 138.752 48.974 141.303 48.974C143.855 48.974 146.099 48.4384 147.86 47.3745V45.4461C147.156 45.9934 146.362 46.4304 145.478 46.7561C144.551 47.1061 143.603 47.2811 142.638 47.2811H142.636ZM141.128 23.9422C143.601 24.0207 144.857 26.14 144.896 30.3022C144.896 32.1309 144.355 33.2585 143.273 33.6859C142.5 33.9585 141.34 34.0561 139.795 33.9776L136.085 33.8026C136.355 27.346 138.036 24.0589 141.129 23.9422H141.128Z" fill="#598017"/>
<path d="M164.578 45.4152C164.779 45.4152 164.984 45.4003 165.185 45.3717C165.211 45.3674 165.236 45.3653 165.262 45.3621C166.135 45.2847 166.551 45.0365 166.551 43.8379V35.6619C165.427 34.8271 163.815 33.935 161.715 32.9857C160.632 32.519 159.86 32.1499 159.396 31.8773C157.077 30.7105 155.918 29.2902 155.918 27.6185C155.918 27.2303 155.976 26.841 156.092 26.4517C156.671 24.8182 158.197 24.0014 160.672 24.0014C164.343 24.0407 166.257 25.8301 166.412 29.3697H166.552V23.9346C164.868 22.9301 162.582 22.4263 159.687 22.4263C157.832 22.4263 156.151 22.6798 154.642 23.1847C153.444 23.574 152.447 24.082 151.649 24.7089C151.258 25.0155 150.913 25.3517 150.618 25.7156C149.708 26.8378 149.251 28.2305 149.251 29.8948C149.251 31.559 149.753 32.8701 150.758 34.0369C150.801 34.0867 150.848 34.1366 150.894 34.1875C151.188 34.5046 151.565 34.8303 152.023 35.1634C153.079 35.9313 154.57 36.7417 156.497 37.5966C157.695 38.1026 158.564 38.511 159.106 38.8218C161.579 40.1445 162.816 41.7971 162.816 43.7817C162.816 44.015 162.796 44.2685 162.758 44.5401C162.371 46.4069 160.883 47.3404 158.294 47.3404C155.522 47.317 153.573 46.4303 152.444 44.6843C152.131 44.1996 151.88 43.648 151.693 43.0307C151.615 42.7719 151.547 42.5025 151.491 42.2192C151.392 41.7218 151.328 41.1882 151.298 40.6186C151.29 40.45 151.282 40.2792 151.28 40.1052H149.309V48.9739C149.618 48.9739 149.889 48.9537 150.121 48.9155C150.622 48.7596 150.874 48.1773 150.874 47.1654C153.193 48.3714 156.053 48.9739 159.455 48.9739C160.782 48.9739 162.012 48.8434 163.146 48.5835C163.138 48.5199 163.132 48.4563 163.132 48.3905V46.8737C163.132 46.0686 163.78 45.4162 164.58 45.4162L164.578 45.4152Z" fill="#598017"/>
<path d="M183.71 46.5811C183.323 46.7763 182.802 46.8728 182.145 46.8728V48.3896H195.131C195.131 47.4955 194.879 47.0097 194.378 46.9312C194.146 46.893 193.914 46.8728 193.682 46.8728H191.769V31.9358C191.769 27.0735 190.049 24.0589 186.609 22.8921C185.758 22.5813 184.831 22.4254 183.826 22.4254C180.696 22.4254 178.202 23.6315 176.347 26.0425C175.96 26.5877 175.631 27.1318 175.362 27.676V10.4648H164.578V11.9816H167.998V43.8392C167.998 45.6678 167.129 46.6596 165.39 46.8145C165.119 46.8537 164.848 46.8728 164.578 46.8728V48.3896H178.203C178.203 47.4955 177.951 47.0097 177.449 46.9312C177.256 46.893 177.044 46.8728 176.812 46.8728H175.363V32.8692C175.363 29.4463 176.406 27.1711 178.493 26.0425C179.15 25.6924 179.787 25.5174 180.406 25.5174C182.763 25.5174 184.078 26.9759 184.348 29.8939C184.386 30.2058 184.406 30.5558 184.406 30.944V43.8381C184.406 45.3942 184.174 46.3085 183.71 46.5801V46.5811Z" fill="#598017"/>
<path d="M77.9353 23.3005H72.0625V24.759H76.563C76.9362 24.2138 77.3925 23.7269 77.9353 23.3005Z" fill="#92B65B"/>
<path d="M34.0658 41.9139C34.0848 39.3056 35.1335 37.2362 37.1909 35.7098V31.9368C37.1909 31.7289 37.1867 31.5253 37.1803 31.3248C36.0599 30.5526 35.4571 29.3221 35.4571 27.7364C35.4571 27.0936 35.5772 26.4741 35.8112 25.8844C34.9617 24.4704 33.7222 23.4734 32.0885 22.8942C31.161 22.5834 30.1945 22.4275 29.19 22.4275C26.3685 22.4275 23.9717 23.5561 22.0007 25.8112C21.4211 26.4731 20.9573 27.153 20.6095 27.8531L20.3196 23.3015H10V24.8183H13.3622V43.8391C13.3622 45.6285 12.5306 46.6203 10.8695 46.8144C10.5987 46.8537 10.3088 46.8728 10 46.8728V48.3896H23.567C23.567 47.4954 23.3151 47.0096 22.8134 46.9311C22.6194 46.8929 22.4076 46.8728 22.1757 46.8728H20.7265L20.7844 31.9358C21.0543 28.8629 22.1757 26.8401 24.1467 25.8674C24.6874 25.5959 25.2481 25.459 25.8278 25.459C28.0306 25.459 29.326 26.7626 29.7117 29.3678C29.7887 29.8737 29.8277 30.3988 29.8277 30.9429V43.837C29.8277 45.4705 29.4019 46.4241 28.5524 46.6956C28.1655 46.8123 27.7018 46.8706 27.1611 46.8706V48.3875H36.7071C34.9659 46.9099 34.0658 44.7206 34.0658 41.9107V41.9139Z" fill="#92B65B"/>
<path d="M61.1398 42.8472C60.9079 45.5308 60.2312 46.8928 59.1108 46.9309C58.2603 46.8535 57.8355 45.8808 57.8355 44.014V32.7598L55.405 26.2173H54.1487C53.3487 26.2173 52.7005 25.5649 52.7005 24.7598V23.3512C52.2061 23.1497 51.676 22.9768 51.111 22.8346C49.9517 22.5631 48.6953 22.4263 47.343 22.4263C42.0857 22.4263 38.7815 23.574 37.4292 25.8683C37.0814 26.4517 36.9075 27.0743 36.9075 27.7352C36.9075 29.252 37.6221 30.2056 39.0523 30.5938C39.4002 30.7105 39.7669 30.7688 40.1538 30.7688C41.8148 30.7688 42.9363 29.9521 43.516 28.3186C43.5929 28.0852 43.7089 27.697 43.8638 27.1518C44.2886 25.5968 44.8293 24.623 45.487 24.2348C45.9117 24.0407 46.3944 23.9431 46.9362 23.9431C48.7522 23.9431 49.8536 25.0515 50.2405 27.2684C50.3943 28.0852 50.4723 29.0579 50.4723 30.1854V33.9775C43.8364 34.1079 39.4117 35.3331 37.192 37.6497C36.0885 38.8016 35.5278 40.2209 35.5151 41.9127C35.5151 44.0193 36.0769 45.6613 37.192 46.8461C37.2005 46.8546 37.2068 46.8631 37.2152 46.8715C37.8276 47.5143 38.6054 48.0203 39.5498 48.3884C39.7079 48.4499 39.8692 48.5093 40.0368 48.5634C40.9253 48.8349 41.9108 48.9718 42.9932 48.9718C46.2774 48.9718 48.6942 47.7275 50.2405 45.238C50.5493 44.7331 50.8001 44.2081 50.9941 43.6629C51.8056 47.0084 53.7566 48.7766 56.85 48.9728C59.6705 48.9728 61.4307 47.9429 62.1263 45.8808C62.2117 45.5944 62.2897 45.2783 62.3592 44.9336L61.5909 42.8642L61.1419 42.8472H61.1398ZM50.4723 41.272C49.7377 43.9949 48.5593 45.6676 46.9362 46.2903C46.5884 46.407 46.2785 46.4653 46.0087 46.4653C44.0757 46.3879 43.0902 44.6568 43.0522 41.272C43.0522 38.7051 44.0957 37.0323 46.1826 36.2538C47.303 35.9037 48.7332 35.6905 50.4723 35.612V41.272Z" fill="#92B65B"/>
<path d="M75.6089 27.87L69.9753 42.3796L63.5976 24.759H67.5395V23.3005H54.1465V24.759H56.4073L59.2815 32.4958L62.6058 41.4451L63.7115 44.4225C63.7599 44.5498 63.8084 44.6729 63.8559 44.7938C64.6379 46.7826 65.2671 47.943 65.7404 48.2729C66.1651 48.5445 66.7838 48.6813 67.5954 48.6813H69.6823L76.5238 30.5887C75.9451 29.8801 75.6289 28.9615 75.6057 27.87H75.6089Z" fill="#92B65B"/>
<path d="M97.4634 45.4153C97.689 45.4153 97.8956 45.4079 98.0874 45.3952C98.0178 45.0069 97.982 44.5487 97.982 44.0131V31.8191C97.982 29.4993 97.4708 27.6059 96.4505 26.1368C96.3515 25.9894 95.7981 25.3285 95.7981 25.3285C94.6988 24.1511 93.1863 23.3195 91.2565 22.8337C90.0971 22.5622 88.8407 22.4254 87.4885 22.4254C85.7083 22.4254 84.1536 22.5569 82.8214 22.821C82.17 22.9493 81.5724 23.1095 81.0285 23.3015C79.398 23.8754 78.246 24.7303 77.5757 25.8684C77.2279 26.4518 77.0539 27.0745 77.0539 27.7353C77.0539 28.132 77.1045 28.4895 77.2026 28.8087C77.3817 29.3953 77.7253 29.8514 78.2344 30.1781C78.5085 30.3542 78.8299 30.4932 79.1999 30.5939C79.5477 30.7106 79.9145 30.7689 80.3013 30.7689C81.9624 30.7689 83.0838 29.9522 83.6635 28.3187C83.7405 28.0853 83.8564 27.6971 84.0113 27.1519C84.4361 25.5969 84.9768 24.6232 85.6345 24.2349C86.0592 24.0408 86.542 23.9432 87.0837 23.9432C88.9008 23.9432 90.0022 25.0517 90.388 27.2686C90.5419 28.0853 90.6199 29.058 90.6199 30.1856V33.9776C80.686 34.1728 75.7006 36.8172 75.6616 41.9128C75.6616 45.375 77.1688 47.5919 80.1843 48.5646C81.0728 48.8361 82.0594 48.973 83.1407 48.973C86.426 48.973 88.8418 47.7287 90.388 45.2392C90.6968 44.7343 90.9477 44.2093 91.1416 43.6641C91.871 46.6712 93.5247 48.3991 96.0954 48.8616C96.0448 48.7131 96.0163 48.555 96.0163 48.3906V46.8738C96.0163 46.0687 96.6645 45.4164 97.4645 45.4164L97.4634 45.4153ZM90.6188 41.2711C89.8842 43.994 88.7058 45.6667 87.0827 46.2894C86.7349 46.406 86.425 46.4644 86.1552 46.4644C84.2221 46.3869 83.2367 44.6558 83.1987 41.2711C83.1987 38.7042 84.2422 37.0314 86.3291 36.2529C87.4495 35.9028 88.8797 35.6896 90.6188 35.6111V41.2711Z" fill="#92B65B"/>
<path d="M201.016 48.3906C202.664 48.3906 204 47.0462 204 45.3877C204 43.7293 202.664 42.3848 201.016 42.3848C199.368 42.3848 198.032 43.7293 198.032 45.3877C198.032 47.0462 199.368 48.3906 201.016 48.3906Z" fill="#92B65B"/>
</svg>
