<svg width="171" height="36" viewBox="0 0 171 36" fill="none" xmlns="http://www.w3.org/2000/svg">
<path d="M107.544 12.9389C107.16 12.6164 106.671 12.3733 106.073 12.2143C105.665 12.1115 105.238 12.0601 104.796 12.0601C102.683 12.0601 100.827 12.9006 99.2255 14.5798C98.5102 15.4026 97.9648 16.2945 97.5904 17.2538L97.2327 12.4705H87.0134C87.0134 12.0741 87.1917 11.7207 87.4714 11.4851C87.5067 6.74761 87.8978 3.90345 88.6438 2.95633C89.0526 2.4767 89.5803 2.23641 90.2278 2.23641C91.0788 2.23641 91.7784 2.88808 92.3228 4.19048C93.0038 5.76777 93.4469 6.69338 93.6513 6.96732C94.2301 7.61899 94.9111 7.96212 95.6952 7.99578C97.0925 7.99578 98.0122 7.44789 98.4544 6.35025C98.5566 6.0763 98.6077 5.78459 98.6077 5.47606C98.6077 3.96703 97.7214 2.76747 95.9507 1.87645C94.6556 1.22572 93.0893 0.899414 91.2488 0.899414C87.2623 0.899414 84.3833 2.33926 82.6125 5.21988C81.5218 7.00285 80.9774 9.19721 80.9774 11.8029V12.4714H76.8376V13.8599H80.9774V30.5742C80.9375 31.6092 80.4813 32.3422 79.6155 32.776C79.2448 32.9612 78.7998 33.092 78.2786 33.1678C77.919 33.2201 77.5261 33.2482 77.0941 33.2482V34.5852H87.0124V33.2482C87.0124 32.8536 87.1899 32.5012 87.4677 32.2655V14.7911C87.1899 14.5555 87.0124 14.203 87.0124 13.8084H91.2525V30.5742C91.2525 31.1249 91.1727 31.5868 91.0138 31.9636C90.7379 32.6199 90.2213 33.0145 89.4642 33.1453C89.1232 33.2145 88.7312 33.2482 88.2889 33.2482V34.5852H102.751C102.751 33.797 102.529 33.3688 102.087 33.2996C101.916 33.266 101.729 33.2482 101.525 33.2482H97.7437V22.1399C97.9815 18.5403 98.8502 16.3459 100.35 15.5568C100.587 15.454 100.81 15.4026 101.014 15.4026C101.388 15.4026 101.797 15.7971 102.24 16.5853C102.689 17.3894 103.166 17.9709 103.67 18.3327C104.122 17.0612 104.763 15.899 105.591 14.8565C106.184 14.1273 106.835 13.4887 107.544 12.938V12.9389Z" fill="#598017"/>
<path d="M116.911 33.6084C114.184 33.6084 112.43 31.8601 111.647 28.3624C111.34 26.9225 111.169 25.2078 111.136 23.2191L115.838 23.3734C118.976 23.4716 121.361 23.2266 122.993 22.6404C121.98 21.409 121.464 19.943 121.464 18.2825C121.464 16.8801 121.794 15.2149 122.976 13.7676C122.471 13.4011 121.901 13.0701 121.255 12.7793C119.585 12.0594 117.694 11.6995 115.582 11.6995C113.181 11.6995 111.112 12.2137 109.373 13.2403C109.002 13.46 108.646 13.704 108.305 13.9705C107.683 14.4557 107.11 15.0186 106.588 15.66C105.846 16.5931 105.274 17.6299 104.869 18.7687C104.725 19.1717 104.602 19.5868 104.502 20.015C104.258 21.0444 104.135 22.1467 104.135 23.3239C104.135 28.295 105.992 31.7582 109.706 33.7122C111.477 34.6378 113.487 35.1006 115.736 35.1006C117.986 35.1006 119.963 34.6285 121.516 33.6907V31.991C120.895 32.4734 120.196 32.8586 119.416 33.1456C118.599 33.4542 117.764 33.6084 116.913 33.6084H116.911ZM115.582 13.0365C117.762 13.1056 118.869 14.9737 118.903 18.6425C118.903 20.2544 118.426 21.2482 117.473 21.625C116.791 21.8653 115.769 21.9513 114.407 21.8821L111.137 21.7279C111.375 16.0368 112.856 13.1393 115.583 13.0365H115.582Z" fill="#598017"/>
<path d="M136.252 31.9636C136.429 31.9636 136.61 31.9506 136.787 31.9253C136.81 31.9216 136.832 31.9197 136.855 31.9169C137.624 31.8486 137.991 31.6299 137.991 30.5734V23.3667C137 22.6308 135.58 21.8445 133.728 21.0078C132.774 20.5964 132.093 20.271 131.684 20.0307C129.64 19.0023 128.618 17.7503 128.618 16.2768C128.618 15.9346 128.669 15.5915 128.772 15.2484C129.283 13.8085 130.628 13.0886 132.809 13.0886C136.045 13.1232 137.732 14.7005 137.869 17.8205H137.992V13.0297C136.508 12.1443 134.493 11.7002 131.941 11.7002C130.305 11.7002 128.824 11.9237 127.494 12.3687C126.438 12.7118 125.559 13.1597 124.856 13.7122C124.511 13.9824 124.207 14.2788 123.947 14.5995C123.144 15.5887 122.742 16.8163 122.742 18.2833C122.742 19.7502 123.184 20.9058 124.071 21.9343C124.108 21.9782 124.15 22.0222 124.191 22.0671C124.45 22.3466 124.781 22.6336 125.186 22.9272C126.116 23.6041 127.43 24.3185 129.129 25.072C130.185 25.518 130.951 25.878 131.429 26.1519C133.608 27.3178 134.699 28.7745 134.699 30.5238C134.699 30.7295 134.681 30.9529 134.648 31.1923C134.307 32.8378 132.995 33.6606 130.713 33.6606C128.27 33.64 126.551 32.8584 125.556 31.3195C125.28 30.8922 125.059 30.406 124.895 29.8618C124.826 29.6337 124.766 29.3962 124.716 29.1466C124.629 28.7081 124.572 28.2378 124.546 27.7357C124.539 27.5871 124.532 27.4366 124.531 27.2832H122.793V35.1004C123.065 35.1004 123.304 35.0827 123.509 35.049C123.951 34.9116 124.173 34.3983 124.173 33.5063C126.217 34.5694 128.737 35.1004 131.736 35.1004C132.906 35.1004 133.99 34.9854 134.99 34.7564C134.982 34.7003 134.978 34.6442 134.978 34.5862V33.2492C134.978 32.5396 135.549 31.9646 136.254 31.9646L136.252 31.9636Z" fill="#598017"/>
<path d="M153.116 32.9913C152.775 33.1633 152.315 33.2484 151.736 33.2484V34.5854H163.183C163.183 33.7972 162.961 33.369 162.519 33.2998C162.314 33.2662 162.11 33.2484 161.905 33.2484H160.219V20.0823C160.219 15.7964 158.703 13.1392 155.671 12.1108C154.921 11.8368 154.103 11.6994 153.218 11.6994C150.459 11.6994 148.261 12.7624 146.626 14.8876C146.285 15.3682 145.995 15.8478 145.757 16.3274V1.15674H136.252V2.49373H139.267V30.5744C139.267 32.1863 138.5 33.0605 136.967 33.197C136.729 33.2316 136.49 33.2484 136.252 33.2484V34.5854H148.262C148.262 33.7972 148.04 33.369 147.597 33.2998C147.426 33.2662 147.24 33.2484 147.035 33.2484H145.758V20.905C145.758 17.8879 146.678 15.8824 148.517 14.8876C149.096 14.5791 149.658 14.4248 150.203 14.4248C152.281 14.4248 153.44 15.7104 153.678 18.2824C153.711 18.5573 153.729 18.8659 153.729 19.2081V30.5735C153.729 31.9451 153.525 32.751 153.116 32.9903V32.9913Z" fill="#598017"/>
<path d="M59.8812 12.4705H54.7046V13.756H58.6716C59.0004 13.2755 59.4027 12.8463 59.8812 12.4705Z" fill="#92B65B"/>
<path d="M21.2127 28.8771C21.2294 26.5781 22.1538 24.7539 23.9672 23.4085V20.0829C23.9672 19.8996 23.9635 19.7201 23.958 19.5434C22.9704 18.8627 22.439 17.7782 22.439 16.3804C22.439 15.8138 22.5449 15.2678 22.7511 14.748C22.0023 13.5017 20.9098 12.6228 19.4698 12.1123C18.6522 11.8384 17.8003 11.7009 16.9149 11.7009C14.4279 11.7009 12.3153 12.6957 10.578 14.6835C10.067 15.2669 9.65825 15.8662 9.35166 16.4833L9.09618 12.4713H0V13.8083H2.96362V30.5741C2.96362 32.1514 2.23061 33.0256 0.766454 33.1967C0.527692 33.2312 0.272207 33.2481 0 33.2481V34.5851H11.9585C11.9585 33.7969 11.7365 33.3687 11.2943 33.2995C11.1233 33.2658 10.9366 33.2481 10.7322 33.2481H9.45479L9.50588 20.0819C9.74372 17.3733 10.7322 15.5904 12.4695 14.733C12.9461 14.4937 13.4403 14.3731 13.9513 14.3731C15.893 14.3731 17.0348 15.5221 17.3748 17.8184C17.4426 18.2644 17.477 18.7272 17.477 19.2068V30.5722C17.477 32.0121 17.1017 32.8526 16.3529 33.0919C16.0119 33.1948 15.6031 33.2462 15.1265 33.2462V34.5832H23.5408C22.006 33.2808 21.2127 31.351 21.2127 28.8743V28.8771Z" fill="#92B65B"/>
<path d="M45.0767 29.6999C44.8723 32.0653 44.2759 33.2658 43.2883 33.2995C42.5386 33.2312 42.1642 32.3738 42.1642 30.7283V20.8084L40.0218 15.0415H38.9144C38.2093 15.0415 37.6379 14.4665 37.6379 13.7569V12.5152C37.2022 12.3376 36.7349 12.1852 36.2369 12.0599C35.215 11.8206 34.1076 11.7 32.9156 11.7C28.2816 11.7 25.3691 12.7116 24.1771 14.7339C23.8705 15.2481 23.7172 15.797 23.7172 16.3794C23.7172 17.7164 24.3471 18.557 25.6078 18.8992C25.9144 19.002 26.2377 19.0534 26.5787 19.0534C28.0428 19.0534 29.0313 18.3335 29.5423 16.8937C29.6101 16.688 29.7123 16.3458 29.8489 15.8652C30.2233 14.4946 30.6999 13.6363 31.2796 13.2941C31.654 13.123 32.0795 13.0369 32.557 13.0369C34.1577 13.0369 35.1286 14.014 35.4695 15.9681C35.6052 16.688 35.6739 17.5453 35.6739 18.5392V21.8817C29.8247 21.9967 25.9246 23.0766 23.9681 25.1185C22.9954 26.1339 22.5011 27.3849 22.49 28.8762C22.49 30.733 22.9852 32.1803 23.9681 33.2247C23.9755 33.2321 23.9811 33.2396 23.9885 33.2471C24.5283 33.8137 25.2139 34.2597 26.0463 34.5841C26.1857 34.6383 26.3278 34.6907 26.4756 34.7384C27.2587 34.9777 28.1274 35.0983 29.0815 35.0983C31.9764 35.0983 34.1066 34.0016 35.4695 31.8073C35.7417 31.3622 35.9629 30.8994 36.1338 30.4188C36.8492 33.3677 38.5688 34.9263 41.2955 35.0993C43.7816 35.0993 45.3331 34.1914 45.9463 32.3738C46.0215 32.1214 46.0903 31.8428 46.1516 31.5389L45.4743 29.7148L45.0785 29.6999H45.0767ZM35.6739 28.3114C35.0264 30.7115 33.9877 32.1859 32.557 32.7347C32.2504 32.8376 31.9773 32.889 31.7395 32.889C30.0356 32.8208 29.167 31.2949 29.1335 28.3114C29.1335 26.0488 30.0533 24.5744 31.8928 23.8881C32.8803 23.5796 34.141 23.3917 35.6739 23.3225V28.3114Z" fill="#92B65B"/>
<path d="M57.8305 16.4983L52.8648 29.2876L47.2433 13.756H50.7178V12.4705H38.9126V13.756H40.9054L43.4389 20.5757L46.369 28.4639L47.3436 31.0884C47.3863 31.2006 47.4291 31.309 47.4709 31.4156C48.1602 33.1687 48.7148 34.1915 49.132 34.4823C49.5064 34.7216 50.0517 34.8422 50.7671 34.8422H52.6066L58.6369 18.8946C58.1269 18.27 57.8482 17.4604 57.8277 16.4983H57.8305Z" fill="#92B65B"/>
<path d="M77.094 31.9636C77.2929 31.9636 77.4749 31.9571 77.644 31.9458C77.5827 31.6036 77.5511 31.1997 77.5511 30.7276V19.9792C77.5511 17.9345 77.1005 16.2656 76.2012 14.9707C76.1139 14.8407 75.6262 14.2582 75.6262 14.2582C74.6572 13.2204 73.324 12.4874 71.623 12.0592C70.601 11.8198 69.4936 11.6992 68.3017 11.6992C66.7325 11.6992 65.3622 11.8152 64.1879 12.048C63.6137 12.1611 63.087 12.3023 62.6076 12.4715C61.1704 12.9773 60.1549 13.7309 59.5641 14.7341C59.2575 15.2483 59.1042 15.7972 59.1042 16.3796C59.1042 16.7293 59.1488 17.0444 59.2352 17.3258C59.3931 17.8429 59.696 18.2449 60.1447 18.5329C60.3863 18.6881 60.6696 18.8105 60.9957 18.8994C61.3023 19.0022 61.6256 19.0536 61.9666 19.0536C63.4307 19.0536 64.4192 18.3337 64.9302 16.8939C64.998 16.6882 65.1002 16.346 65.2368 15.8654C65.6112 14.4948 66.0878 13.6365 66.6675 13.2943C67.0419 13.1232 67.4674 13.0372 67.9449 13.0372C69.5466 13.0372 70.5174 14.0142 70.8574 15.9683C70.9931 16.6882 71.0618 17.5455 71.0618 18.5394V21.8819C62.3057 22.0539 57.9113 24.3848 57.877 28.8764C57.877 31.9281 59.2055 33.8821 61.8634 34.7395C62.6466 34.9789 63.5162 35.0995 64.4694 35.0995C67.3652 35.0995 69.4945 34.0028 70.8574 31.8084C71.1296 31.3634 71.3507 30.9005 71.5217 30.42C72.1646 33.0706 73.6222 34.5936 75.8882 35.0013C75.8436 34.8704 75.8185 34.7311 75.8185 34.5862V33.2492C75.8185 32.5395 76.3898 31.9645 77.095 31.9645L77.094 31.9636ZM71.0609 28.3107C70.4134 30.7107 69.3747 32.1852 67.944 32.734C67.6374 32.8369 67.3643 32.8883 67.1264 32.8883C65.4226 32.82 64.5539 31.2942 64.5205 28.3107C64.5205 26.0481 65.4402 24.5737 67.2797 23.8874C68.2673 23.5789 69.528 23.3909 71.0609 23.3217V28.3107Z" fill="#92B65B"/>
<path d="M168.37 34.5862C169.822 34.5862 171 33.4012 171 31.9394C171 30.4775 169.822 29.2925 168.37 29.2925C166.917 29.2925 165.74 30.4775 165.74 31.9394C165.74 33.4012 166.917 34.5862 168.37 34.5862Z" fill="#92B65B"/>
</svg>
