<svg width="191" height="55" viewBox="0 0 191 55" fill="none" xmlns="http://www.w3.org/2000/svg">
<path d="M117.544 22.2837C117.161 21.9611 116.671 21.718 116.074 21.5591C115.665 21.4562 115.238 21.4048 114.796 21.4048C112.684 21.4048 110.827 22.2453 109.226 23.9245C108.51 24.7473 107.965 25.6392 107.591 26.5985L107.233 21.8152H97.0136C97.0136 21.4188 97.192 21.0654 97.4716 20.8298C97.5069 16.0923 97.8981 13.2482 98.6441 12.3011C99.0528 11.8214 99.5805 11.5811 100.228 11.5811C101.079 11.5811 101.779 12.2328 102.323 13.5352C103.004 15.1125 103.447 16.0381 103.652 16.3121C104.23 16.9637 104.911 17.3069 105.695 17.3405C107.093 17.3405 108.012 16.7926 108.455 15.695C108.557 15.421 108.608 15.1293 108.608 14.8208C108.608 13.3118 107.722 12.1122 105.951 11.2212C104.656 10.5704 103.089 10.2441 101.249 10.2441C97.2626 10.2441 94.3835 11.684 92.6128 14.5646C91.5221 16.3476 90.9777 18.5419 90.9777 21.1477V21.8162H86.8379V23.2046H90.9777V39.9189C90.9377 40.9539 90.4816 41.6869 89.6157 42.1208C89.245 42.3059 88.8 42.4368 88.2788 42.5125C87.9193 42.5649 87.5263 42.5929 87.0943 42.5929V43.9299H97.0127V42.5929C97.0127 42.1984 97.1901 41.8459 97.4679 41.6103V24.1358C97.1901 23.9002 97.0127 23.5477 97.0127 23.1532H101.253V39.9189C101.253 40.4696 101.173 40.9315 101.014 41.3083C100.738 41.9646 100.222 42.3592 99.4644 42.4901C99.1234 42.5593 98.7314 42.5929 98.2892 42.5929V43.9299H112.751C112.751 43.1417 112.529 42.7135 112.087 42.6443C111.916 42.6107 111.73 42.5929 111.525 42.5929H107.744V31.4846C107.982 27.885 108.85 25.6907 110.35 24.9016C110.588 24.7987 110.81 24.7473 111.014 24.7473C111.389 24.7473 111.797 25.1418 112.24 25.93C112.689 26.7341 113.167 27.3156 113.67 27.6775C114.123 26.4059 114.763 25.2438 115.592 24.2013C116.184 23.472 116.835 22.8334 117.544 22.2827V22.2837Z" fill="#598017"/>
<path d="M126.911 42.9529C124.184 42.9529 122.43 41.2045 121.647 37.7069C121.34 36.267 121.169 34.5523 121.136 32.5636L125.838 32.7179C128.976 32.8161 131.361 32.5711 132.993 31.9849C131.981 30.7535 131.464 29.2875 131.464 27.627C131.464 26.2246 131.794 24.5594 132.977 23.1121C132.471 22.7456 131.901 22.4146 131.255 22.1238C129.586 21.4039 127.694 21.0439 125.582 21.0439C123.181 21.0439 121.112 21.5582 119.374 22.5848C119.002 22.8045 118.646 23.0485 118.305 23.315C117.683 23.8002 117.111 24.3631 116.588 25.0044C115.846 25.9375 115.275 26.9744 114.869 28.1132C114.726 28.5162 114.602 28.9313 114.502 29.3595C114.258 30.3889 114.136 31.4912 114.136 32.6683C114.136 37.6395 115.992 41.1026 119.706 43.0567C121.477 43.9823 123.487 44.4451 125.737 44.4451C127.986 44.4451 129.964 43.973 131.516 43.0352V41.3354C130.896 41.8179 130.196 42.2031 129.417 42.4901C128.599 42.7987 127.764 42.9529 126.913 42.9529H126.911ZM125.582 22.3809C127.762 22.4501 128.869 24.3182 128.904 27.987C128.904 29.5989 128.426 30.5927 127.473 30.9695C126.791 31.2098 125.769 31.2958 124.407 31.2266L121.137 31.0724C121.375 25.3812 122.857 22.4838 125.583 22.3809H125.582Z" fill="#598017"/>
<path d="M146.252 41.3084C146.429 41.3084 146.61 41.2953 146.787 41.27C146.81 41.2663 146.832 41.2644 146.855 41.2616C147.624 41.1934 147.991 40.9746 147.991 39.9181V32.7114C147 31.9756 145.58 31.1893 143.728 30.3525C142.774 29.9411 142.093 29.6157 141.684 29.3754C139.64 28.347 138.618 27.0951 138.618 25.6216C138.618 25.2794 138.669 24.9362 138.772 24.5931C139.283 23.1533 140.628 22.4333 142.809 22.4333C146.045 22.4679 147.732 24.0452 147.869 27.1652H147.992V22.3744C146.508 21.489 144.493 21.0449 141.941 21.0449C140.305 21.0449 138.824 21.2684 137.494 21.7134C136.438 22.0566 135.559 22.5044 134.856 23.057C134.511 23.3272 134.207 23.6235 133.947 23.9442C133.144 24.9334 132.742 26.161 132.742 27.628C132.742 29.095 133.184 30.2506 134.071 31.279C134.108 31.323 134.15 31.3669 134.191 31.4118C134.45 31.6913 134.781 31.9784 135.186 32.272C136.116 32.9489 137.43 33.6632 139.129 34.4168C140.185 34.8627 140.951 35.2227 141.429 35.4966C143.608 36.6625 144.699 38.1192 144.699 39.8685C144.699 40.0742 144.681 40.2977 144.648 40.537C144.307 42.1826 142.995 43.0053 140.713 43.0053C138.27 42.9848 136.551 42.2031 135.556 40.6642C135.28 40.2369 135.059 39.7507 134.895 39.2066C134.826 38.9784 134.766 38.741 134.716 38.4913C134.629 38.0528 134.572 37.5825 134.546 37.0805C134.539 36.9318 134.532 36.7813 134.531 36.6279H132.793V44.4452C133.065 44.4452 133.304 44.4274 133.509 44.3938C133.951 44.2563 134.173 43.743 134.173 42.8511C136.217 43.9141 138.737 44.4452 141.736 44.4452C142.906 44.4452 143.99 44.3302 144.99 44.1011C144.982 44.045 144.978 43.9889 144.978 43.9309V42.5939C144.978 41.8843 145.549 41.3093 146.254 41.3093L146.252 41.3084Z" fill="#598017"/>
<path d="M163.116 42.3358C162.775 42.5078 162.315 42.5929 161.736 42.5929V43.9299H173.183C173.183 43.1417 172.961 42.7135 172.519 42.6443C172.314 42.6106 172.11 42.5929 171.906 42.5929H170.219V29.4267C170.219 25.1409 168.703 22.4837 165.671 21.4552C164.921 21.1813 164.104 21.0439 163.218 21.0439C160.459 21.0439 158.261 22.1069 156.626 24.2321C156.285 24.7127 155.995 25.1923 155.757 25.6719V10.5012H146.252V11.8382H149.267V39.9189C149.267 41.5308 148.5 42.405 146.968 42.5415C146.729 42.5761 146.49 42.5929 146.252 42.5929V43.9299H158.262C158.262 43.1417 158.04 42.7135 157.598 42.6443C157.427 42.6106 157.24 42.5929 157.036 42.5929H155.758V30.2495C155.758 27.2324 156.678 25.2269 158.517 24.2321C159.096 23.9235 159.658 23.7693 160.204 23.7693C162.281 23.7693 163.44 25.0549 163.678 27.6269C163.712 27.9018 163.729 28.2104 163.729 28.5525V39.918C163.729 41.2895 163.525 42.0955 163.116 42.3348V42.3358Z" fill="#598017"/>
<path d="M69.8812 21.8152H64.7046V23.1008H68.6716C69.0004 22.6202 69.4027 22.191 69.8812 21.8152Z" fill="#92B65B"/>
<path d="M31.2127 38.2219C31.2294 35.9228 32.1538 34.0987 33.9672 32.7533V29.4276C33.9672 29.2443 33.9635 29.0648 33.958 28.8881C32.9704 28.2075 32.439 27.1229 32.439 25.7251C32.439 25.1586 32.5449 24.6125 32.7511 24.0927C32.0023 22.8464 30.9098 21.9675 29.4698 21.457C28.6522 21.1831 27.8003 21.0457 26.9149 21.0457C24.4279 21.0457 22.3153 22.0405 20.578 24.0282C20.067 24.6116 19.6582 25.2109 19.3517 25.828L19.0962 21.8161H10V23.1531H12.9636V39.9188C12.9636 41.4961 12.2306 42.3703 10.7665 42.5414C10.5277 42.576 10.2722 42.5928 10 42.5928V43.9298H21.9585C21.9585 43.1416 21.7365 42.7134 21.2943 42.6442C21.1233 42.6106 20.9366 42.5928 20.7322 42.5928H19.4548L19.5059 29.4267C19.7437 26.7181 20.7322 24.9351 22.4695 24.0777C22.9461 23.8384 23.4403 23.7178 23.9513 23.7178C25.893 23.7178 27.0348 24.8668 27.3748 27.1631C27.4426 27.6091 27.477 28.0719 27.477 28.5515V39.9169C27.477 41.3568 27.1017 42.1973 26.3529 42.4367C26.0119 42.5395 25.6031 42.5909 25.1265 42.5909V43.9279H33.5408C32.0061 42.6255 31.2127 40.6958 31.2127 38.219V38.2219Z" fill="#92B65B"/>
<path d="M55.0767 39.0446C54.8723 41.41 54.2759 42.6105 53.2883 42.6442C52.5386 42.5759 52.1642 41.7186 52.1642 40.073V30.1531L50.0218 24.3862H48.9144C48.2093 24.3862 47.6379 23.8112 47.6379 23.1016V21.86C47.2022 21.6823 46.7349 21.5299 46.2369 21.4046C45.215 21.1653 44.1076 21.0447 42.9156 21.0447C38.2816 21.0447 35.3691 22.0563 34.1771 24.0786C33.8705 24.5929 33.7172 25.1417 33.7172 25.7242C33.7172 27.0612 34.3471 27.9017 35.6078 28.2439C35.9144 28.3467 36.2377 28.3982 36.5787 28.3982C38.0428 28.3982 39.0313 27.6782 39.5423 26.2384C39.6101 26.0327 39.7123 25.6905 39.8489 25.2099C40.2233 23.8393 40.6999 22.981 41.2796 22.6388C41.654 22.4677 42.0795 22.3817 42.557 22.3817C44.1577 22.3817 45.1286 23.3587 45.4695 25.3128C45.6052 26.0327 45.6739 26.8901 45.6739 27.8839V31.2264C39.8247 31.3414 35.9246 32.4213 33.9681 34.4633C32.9954 35.4786 32.5011 36.7296 32.49 38.2209C32.49 40.0777 32.9852 41.525 33.9681 42.5694C33.9755 42.5769 33.9811 42.5844 33.9885 42.5918C34.5283 43.1584 35.2139 43.6044 36.0463 43.9288C36.1857 43.9831 36.3278 44.0354 36.4756 44.0831C37.2587 44.3224 38.1274 44.4431 39.0815 44.4431C41.9764 44.4431 44.1066 43.3463 45.4695 41.152C45.7417 40.7069 45.9629 40.2441 46.1338 39.7636C46.8492 42.7124 48.5688 44.271 51.2955 44.444C53.7816 44.444 55.3331 43.5361 55.9463 41.7186C56.0215 41.4661 56.0903 41.1875 56.1516 40.8837L55.4743 39.0595L55.0785 39.0446H55.0767ZM45.6739 37.6562C45.0264 40.0562 43.9877 41.5306 42.557 42.0795C42.2504 42.1823 41.9773 42.2337 41.7395 42.2337C40.0356 42.1655 39.167 40.6396 39.1335 37.6562C39.1335 35.3936 40.0533 33.9191 41.8928 33.2329C42.8803 32.9243 44.141 32.7364 45.6739 32.6672V37.6562Z" fill="#92B65B"/>
<path d="M67.8305 25.843L62.8648 38.6324L57.2433 23.1008H60.7178V21.8152H48.9126V23.1008H50.9054L53.4389 29.9204L56.369 37.8087L57.3436 40.4331C57.3863 40.5453 57.4291 40.6538 57.4709 40.7603C58.1602 42.5134 58.7148 43.5362 59.132 43.827C59.5064 44.0664 60.0517 44.187 60.7671 44.187H62.6066L68.6369 28.2393C68.1269 27.6148 67.8482 26.8051 67.8277 25.843H67.8305Z" fill="#92B65B"/>
<path d="M87.094 41.3083C87.2929 41.3083 87.4749 41.3018 87.644 41.2906C87.5827 40.9484 87.5511 40.5445 87.5511 40.0723V29.324C87.5511 27.2792 87.1005 25.6103 86.2012 24.3154C86.1139 24.1854 85.6262 23.6029 85.6262 23.6029C84.6572 22.5651 83.324 21.8321 81.623 21.4039C80.601 21.1646 79.4936 21.0439 78.3017 21.0439C76.7325 21.0439 75.3622 21.1599 74.1879 21.3927C73.6137 21.5058 73.087 21.647 72.6076 21.8162C71.1704 22.322 70.155 23.0756 69.5641 24.0788C69.2575 24.5931 69.1042 25.1419 69.1042 25.7244C69.1042 26.074 69.1488 26.3891 69.2352 26.6706C69.3931 27.1876 69.696 27.5896 70.1447 27.8776C70.3863 28.0328 70.6696 28.1553 70.9957 28.2441C71.3023 28.3469 71.6256 28.3984 71.9666 28.3984C73.4307 28.3984 74.4192 27.6784 74.9302 26.2386C74.998 26.0329 75.1002 25.6907 75.2368 25.2101C75.6112 23.8395 76.0878 22.9812 76.6675 22.639C77.0419 22.4679 77.4674 22.3819 77.9449 22.3819C79.5466 22.3819 80.5174 23.3589 80.8574 25.313C80.9931 26.0329 81.0618 26.8903 81.0618 27.8841V31.2266C72.3057 31.3987 67.9113 33.7295 67.877 38.2211C67.877 41.2728 69.2055 43.2269 71.8634 44.0842C72.6466 44.3236 73.5162 44.4442 74.4694 44.4442C77.3652 44.4442 79.4945 43.3475 80.8574 41.1531C81.1296 40.7081 81.3507 40.2453 81.5217 39.7647C82.1646 42.4153 83.6222 43.9384 85.8882 44.346C85.8436 44.2151 85.8185 44.0758 85.8185 43.9309V42.5939C85.8185 41.8843 86.3898 41.3093 87.095 41.3093L87.094 41.3083ZM81.0609 37.6554C80.4134 40.0555 79.3747 41.5299 77.944 42.0787C77.6374 42.1816 77.3643 42.233 77.1264 42.233C75.4226 42.1648 74.5539 40.6389 74.5205 37.6554C74.5205 35.3928 75.4402 33.9184 77.2797 33.2321C78.2673 32.9236 79.528 32.7357 81.0609 32.6665V37.6554Z" fill="#92B65B"/>
<path d="M178.37 43.931C179.822 43.931 181 42.7459 181 41.2841C181 39.8223 179.822 38.6372 178.37 38.6372C176.917 38.6372 175.74 39.8223 175.74 41.2841C175.74 42.7459 176.917 43.931 178.37 43.931Z" fill="#92B65B"/>
</svg>
