<svg width="214" height="60" viewBox="0 0 214 60" fill="none" xmlns="http://www.w3.org/2000/svg">
<path d="M132.009 24.5293C131.574 24.1634 131.018 23.8876 130.34 23.7072C129.877 23.5906 129.393 23.5322 128.891 23.5322C126.494 23.5322 124.389 24.4858 122.571 26.3909C121.76 27.3243 121.141 28.3362 120.716 29.4245L120.311 23.9979H108.717C108.717 23.5481 108.919 23.1472 109.236 22.8799C109.276 17.5052 109.72 14.2785 110.566 13.204C111.03 12.6599 111.629 12.3873 112.364 12.3873C113.329 12.3873 114.123 13.1266 114.74 14.6042C115.513 16.3936 116.016 17.4437 116.247 17.7545C116.904 18.4938 117.677 18.8831 118.566 18.9213C120.151 18.9213 121.195 18.2997 121.697 17.0544C121.813 16.7436 121.871 16.4127 121.871 16.0627C121.871 14.3507 120.865 12.9898 118.856 11.9789C117.387 11.2406 115.61 10.8705 113.522 10.8705C108.999 10.8705 105.733 12.504 103.724 15.772C102.487 17.7948 101.869 20.2843 101.869 23.2405V23.9989H97.1724V25.5741H101.869V44.5365C101.824 45.7108 101.306 46.5424 100.324 47.0345C99.9033 47.2445 99.3984 47.393 98.8071 47.479C98.3992 47.5384 97.9534 47.5702 97.4633 47.5702V49.087H108.716V47.5702C108.716 47.1226 108.917 46.7227 109.232 46.4554V26.6306C108.917 26.3633 108.716 25.9634 108.716 25.5158H113.526V44.5365C113.526 45.1613 113.435 45.6853 113.255 46.1128C112.942 46.8574 112.356 47.305 111.497 47.4535C111.11 47.532 110.666 47.5702 110.164 47.5702V49.087H126.571C126.571 48.1928 126.319 47.707 125.818 47.6285C125.624 47.5903 125.412 47.5702 125.18 47.5702H120.89V34.9678C121.16 30.8841 122.146 28.3946 123.847 27.4993C124.117 27.3826 124.369 27.3243 124.6 27.3243C125.025 27.3243 125.489 27.7719 125.992 28.6661C126.501 29.5783 127.042 30.2381 127.614 30.6486C128.127 29.206 128.853 27.8875 129.793 26.7048C130.466 25.8775 131.205 25.153 132.009 24.5282V24.5293Z" fill="#598017"/>
<path d="M142.635 47.9786C139.542 47.9786 137.552 45.9951 136.663 42.027C136.315 40.3935 136.121 38.4481 136.083 36.192L141.418 36.367C144.978 36.4783 147.684 36.2004 149.536 35.5354C148.387 34.1384 147.801 32.4752 147.801 30.5914C147.801 29.0003 148.175 27.1112 149.517 25.4692C148.943 25.0534 148.296 24.6779 147.564 24.348C145.669 23.5312 143.524 23.1229 141.128 23.1229C138.403 23.1229 136.056 23.7063 134.084 24.8709C133.662 25.1202 133.259 25.397 132.872 25.6993C132.166 26.2499 131.516 26.8884 130.924 27.6161C130.082 28.6747 129.434 29.851 128.973 31.1429C128.811 31.6001 128.671 32.0711 128.557 32.5569C128.281 33.7247 128.142 34.9753 128.142 36.3108C128.142 41.9506 130.247 45.8795 134.461 48.0964C136.47 49.1465 138.751 49.6715 141.303 49.6715C143.855 49.6715 146.098 49.1359 147.86 48.072V46.1436C147.156 46.6909 146.362 47.1279 145.478 47.4536C144.55 47.8036 143.603 47.9786 142.637 47.9786H142.635ZM141.128 24.6397C143.6 24.7182 144.857 26.8375 144.896 30.9997C144.896 32.8284 144.354 33.956 143.273 34.3834C142.499 34.656 141.34 34.7536 139.795 34.6751L136.084 34.5001C136.354 28.0435 138.035 24.7564 141.129 24.6397H141.128Z" fill="#598017"/>
<path d="M164.578 46.1127C164.778 46.1127 164.984 46.0978 165.185 46.0692C165.211 46.0649 165.236 46.0628 165.262 46.0596C166.135 45.9822 166.551 45.734 166.551 44.5354V36.3594C165.427 35.5246 163.815 34.6325 161.714 33.6832C160.632 33.2165 159.859 32.8474 159.396 32.5747C157.077 31.408 155.917 29.9877 155.917 28.316C155.917 27.9277 155.975 27.5385 156.091 27.1492C156.671 25.5157 158.197 24.6989 160.672 24.6989C164.343 24.7382 166.257 26.5276 166.412 30.0672H166.552V24.6321C164.868 23.6276 162.582 23.1238 159.687 23.1238C157.832 23.1238 156.15 23.3773 154.642 23.8822C153.444 24.2715 152.447 24.7795 151.649 25.4064C151.258 25.713 150.913 26.0492 150.618 26.413C149.707 27.5353 149.251 28.928 149.251 30.5923C149.251 32.2565 149.753 33.5676 150.758 34.7344C150.8 34.7842 150.848 34.8341 150.894 34.885C151.188 35.2021 151.564 35.5278 152.023 35.8608C153.079 36.6288 154.569 37.4392 156.497 38.2941C157.695 38.8001 158.564 39.2085 159.106 39.5193C161.578 40.842 162.816 42.4946 162.816 44.4792C162.816 44.7125 162.796 44.966 162.758 45.2376C162.371 47.1044 160.883 48.0379 158.294 48.0379C155.522 48.0145 153.572 47.1278 152.444 45.3818C152.13 44.8971 151.88 44.3455 151.693 43.7282C151.615 43.4694 151.547 43.1999 151.491 42.9167C151.392 42.4193 151.327 41.8857 151.298 41.3161C151.289 41.1475 151.282 40.9767 151.28 40.8027H149.309V49.6714C149.618 49.6714 149.889 49.6512 150.121 49.613C150.622 49.4571 150.874 48.8748 150.874 47.8629C153.193 49.0689 156.052 49.6714 159.455 49.6714C160.782 49.6714 162.012 49.5409 163.146 49.281C163.137 49.2174 163.132 49.1537 163.132 49.088V47.5712C163.132 46.7661 163.78 46.1137 164.58 46.1137L164.578 46.1127Z" fill="#598017"/>
<path d="M183.71 47.2786C183.323 47.4738 182.802 47.5703 182.145 47.5703V49.0871H195.131C195.131 48.1929 194.879 47.7071 194.378 47.6286C194.146 47.5905 193.914 47.5703 193.682 47.5703H191.769V32.6333C191.769 27.771 190.049 24.7564 186.609 23.5896C185.758 23.2788 184.831 23.1229 183.826 23.1229C180.696 23.1229 178.202 24.3289 176.347 26.7399C175.96 27.2852 175.631 27.8293 175.362 28.3734V11.1623H164.578V12.6791H167.998V44.5367C167.998 46.3653 167.129 47.3571 165.39 47.512C165.119 47.5512 164.848 47.5703 164.578 47.5703V49.0871H178.203C178.203 48.1929 177.951 47.7071 177.449 47.6286C177.256 47.5905 177.044 47.5703 176.812 47.5703H175.363V33.5667C175.363 30.1438 176.406 27.8685 178.493 26.7399C179.15 26.3899 179.787 26.2149 180.406 26.2149C182.763 26.2149 184.078 27.6734 184.348 30.5914C184.386 30.9033 184.406 31.2533 184.406 31.6415V44.5356C184.406 46.0917 184.174 47.006 183.71 47.2775V47.2786Z" fill="#598017"/>
<path d="M77.9353 23.9979H72.0625V25.4564H76.563C76.9362 24.9112 77.3925 24.4243 77.9353 23.9979Z" fill="#92B65B"/>
<path d="M34.0658 42.6113C34.0848 40.003 35.1335 37.9336 37.1909 36.4072V32.6342C37.1909 32.4263 37.1867 32.2227 37.1803 32.0222C36.0599 31.25 35.4571 30.0196 35.4571 28.4338C35.4571 27.791 35.5772 27.1716 35.8112 26.5818C34.9617 25.1679 33.7222 24.1708 32.0885 23.5916C31.161 23.2808 30.1945 23.1249 29.19 23.1249C26.3685 23.1249 23.9717 24.2535 22.0007 26.5086C21.4211 27.1705 20.9573 27.8504 20.6095 28.5505L20.3196 23.999H10V25.5158H13.3622V44.5365C13.3622 46.326 12.5306 47.3177 10.8695 47.5119C10.5987 47.5511 10.3088 47.5702 10 47.5702V49.087H23.567C23.567 48.1928 23.3151 47.707 22.8134 47.6285C22.6194 47.5903 22.4076 47.5702 22.1757 47.5702H20.7265L20.7844 32.6332C21.0543 29.5603 22.1757 27.5375 24.1467 26.5648C24.6874 26.2933 25.2481 26.1565 25.8278 26.1565C28.0306 26.1565 29.326 27.4601 29.7117 30.0652C29.7887 30.5712 29.8277 31.0962 29.8277 31.6404V44.5344C29.8277 46.1679 29.4019 47.1215 28.5524 47.3931C28.1655 47.5097 27.7018 47.5681 27.1611 47.5681V49.0849H36.7071C34.9659 47.6073 34.0658 45.418 34.0658 42.6082V42.6113Z" fill="#92B65B"/>
<path d="M61.1398 43.5446C60.9079 46.2282 60.2312 47.5902 59.1108 47.6284C58.2603 47.5509 57.8355 46.5783 57.8355 44.7114V33.4572L55.405 26.9147H54.1487C53.3487 26.9147 52.7005 26.2624 52.7005 25.4573V24.0486C52.2061 23.8471 51.676 23.6742 51.111 23.5321C49.9517 23.2605 48.6953 23.1237 47.343 23.1237C42.0857 23.1237 38.7815 24.2714 37.4292 26.5657C37.0814 27.1491 36.9075 27.7718 36.9075 28.4326C36.9075 29.9494 37.6221 30.903 39.0523 31.2912C39.4002 31.4079 39.7669 31.4662 40.1538 31.4662C41.8148 31.4662 42.9363 30.6495 43.516 29.016C43.5929 28.7826 43.7089 28.3944 43.8638 27.8492C44.2886 26.2942 44.8293 25.3204 45.487 24.9322C45.9117 24.7381 46.3944 24.6405 46.9362 24.6405C48.7522 24.6405 49.8536 25.749 50.2405 27.9659C50.3943 28.7826 50.4723 29.7553 50.4723 30.8828V34.6749C43.8364 34.8054 39.4117 36.0305 37.192 38.3471C36.0885 39.499 35.5278 40.9183 35.5151 42.6101C35.5151 44.7167 36.0769 46.3587 37.192 47.5435C37.2005 47.552 37.2068 47.5605 37.2152 47.569C37.8276 48.2118 38.6054 48.7177 39.5498 49.0858C39.7079 49.1473 39.8692 49.2067 40.0368 49.2608C40.9253 49.5324 41.9108 49.6692 42.9932 49.6692C46.2774 49.6692 48.6942 48.425 50.2405 45.9355C50.5493 45.4306 50.8001 44.9055 50.9941 44.3603C51.8056 47.7058 53.7566 49.474 56.85 49.6703C59.6705 49.6703 61.4307 48.6403 62.1263 46.5783C62.2117 46.2919 62.2897 45.9758 62.3592 45.631L61.5909 43.5616L61.1419 43.5446H61.1398ZM50.4723 41.9695C49.7377 44.6923 48.5593 46.3651 46.9362 46.9877C46.5884 47.1044 46.2785 47.1627 46.0087 47.1627C44.0757 47.0853 43.0902 45.3542 43.0522 41.9695C43.0522 39.4025 44.0957 37.7298 46.1826 36.9512C47.303 36.6012 48.7332 36.388 50.4723 36.3095V41.9695Z" fill="#92B65B"/>
<path d="M75.6089 28.5675L69.9753 43.077L63.5976 25.4564H67.5395V23.9979H54.1465V25.4564H56.4073L59.2815 33.1933L62.6058 42.1426L63.7115 45.12C63.7599 45.2473 63.8084 45.3703 63.8559 45.4912C64.6379 47.4801 65.2671 48.6405 65.7404 48.9704C66.1651 49.2419 66.7838 49.3788 67.5954 49.3788H69.6823L76.5238 31.2861C75.9451 30.5776 75.6289 29.659 75.6057 28.5675H75.6089Z" fill="#92B65B"/>
<path d="M97.4634 46.1128C97.689 46.1128 97.8956 46.1053 98.0874 46.0926C98.0178 45.7044 97.982 45.2462 97.982 44.7105V32.5165C97.982 30.1967 97.4708 28.3033 96.4505 26.8342C96.3515 26.6868 95.7981 26.026 95.7981 26.026C94.6988 24.8486 93.1863 24.017 91.2565 23.5312C90.0971 23.2596 88.8407 23.1228 87.4885 23.1228C85.7083 23.1228 84.1536 23.2543 82.8214 23.5184C82.17 23.6468 81.5724 23.8069 81.0285 23.9989C79.398 24.5728 78.246 25.4277 77.5757 26.5659C77.2279 27.1493 77.0539 27.7719 77.0539 28.4327C77.0539 28.8294 77.1045 29.1869 77.2026 29.5062C77.3817 30.0928 77.7253 30.5489 78.2344 30.8756C78.5085 31.0516 78.8299 31.1906 79.1999 31.2914C79.5477 31.408 79.9145 31.4664 80.3013 31.4664C81.9624 31.4664 83.0838 30.6496 83.6635 29.0161C83.7405 28.7828 83.8564 28.3945 84.0113 27.8493C84.4361 26.2943 84.9768 25.3206 85.6345 24.9324C86.0592 24.7383 86.542 24.6407 87.0837 24.6407C88.9008 24.6407 90.0022 25.7491 90.388 27.966C90.5419 28.7828 90.6199 29.7554 90.6199 30.883V34.6751C80.686 34.8702 75.7006 37.5146 75.6616 42.6103C75.6616 46.0724 77.1688 48.2893 80.1843 49.262C81.0728 49.5336 82.0594 49.6704 83.1407 49.6704C86.426 49.6704 88.8418 48.4262 90.388 45.9367C90.6968 45.4318 90.9477 44.9067 91.1416 44.3615C91.871 47.3686 93.5247 49.0966 96.0954 49.559C96.0448 49.4105 96.0163 49.2525 96.0163 49.0881V47.5712C96.0163 46.7662 96.6645 46.1138 97.4645 46.1138L97.4634 46.1128ZM90.6188 41.9685C89.8842 44.6914 88.7058 46.3641 87.0827 46.9868C86.7349 47.1035 86.425 47.1618 86.1552 47.1618C84.2221 47.0844 83.2367 45.3533 83.1987 41.9685C83.1987 39.4016 84.2422 37.7289 86.3291 36.9503C87.4495 36.6002 88.8797 36.387 90.6188 36.3086V41.9685Z" fill="#92B65B"/>
<path d="M201.016 49.0881C202.664 49.0881 204 47.7436 204 46.0852C204 44.4267 202.664 43.0823 201.016 43.0823C199.368 43.0823 198.032 44.4267 198.032 46.0852C198.032 47.7436 199.368 49.0881 201.016 49.0881Z" fill="#92B65B"/>
</svg>
