<svg width="46" height="79" viewBox="0 0 46 79" fill="none" xmlns="http://www.w3.org/2000/svg">
<g clip-path="url(#clip0_4402_4)">
<path d="M45.8507 30.7702C45.8507 30.7702 45.8507 30.676 45.8507 30.6222C45.8507 30.5549 45.8642 30.4877 45.8507 30.4204C45.2574 26.7341 44.3539 25.5771 42.2369 25.1466C41.711 15.6754 34.7801 8.00694 25.5568 6.86339C25.4085 4.22651 25.0175 1.18603 23.0083 0.365372C21.2419 -0.361114 18.8282 0.190477 16.9943 0.365372C14.284 0.620988 11.6545 1.10531 9.02511 1.85871C8.48573 2.00669 8.29695 2.50447 8.36438 3.0157C8.55315 4.32069 8.86329 5.51805 9.30828 6.75576C9.49706 7.26699 9.92855 7.50916 10.4679 7.41498C13.0974 6.95756 15.7403 6.5136 18.3697 6.05618C18.4237 6.47324 18.4911 6.87684 18.545 7.2939C10.4275 9.39264 4.41348 16.9535 3.63139 25.3484C0.853626 25.9 0.260317 27.3126 0.00411537 31.1738C-0.0228532 31.4832 0.0850211 31.7119 0.260317 31.8599C0.408644 32.0348 0.637877 32.129 0.948016 32.1155C1.82449 32.0617 2.70097 32.0214 3.56397 31.981C3.56397 32.0348 3.55048 32.0886 3.56397 32.1424C5.11466 42.7438 6.65187 53.3585 8.20256 63.9733C8.75542 67.7537 9.29479 71.5341 9.87462 75.3146C10.0769 76.6734 9.94204 77.7496 11.1152 78.4761C12.6793 79.4313 16.5898 78.7856 18.3428 78.799C22.3341 78.8259 26.3389 78.7587 30.3303 78.6779C31.5978 78.651 34.7262 79.1757 35.8319 78.4223C37.477 77.3057 37.3421 72.5566 37.6118 70.8884C39.7154 57.852 41.3739 44.7483 42.3448 31.5774C43.2078 31.5774 44.0843 31.5908 44.9473 31.6043C45.4731 31.6043 45.7563 31.2545 45.8237 30.8509C45.8237 30.824 45.8237 30.7971 45.8372 30.7702H45.8507ZM40.3491 24.9179C39.7288 24.8776 39.0546 24.8507 38.286 24.8238C38.2456 22.4963 37.45 21.0433 34.9824 20.3303C34.7262 20.2496 34.4295 20.2092 34.1598 20.142C35.6431 16.6575 31.7866 15.2987 28.0649 14.774C28.2807 13.469 28.038 12.1371 27.2424 11.0205C26.9188 10.5631 26.3524 9.94423 25.7187 9.6079C25.6917 9.35228 25.6782 9.06976 25.6512 8.76033C33.6879 9.93078 39.7558 16.6037 40.3221 24.9179H40.3491ZM9.73977 24.7968C8.95768 21.7833 15.5515 21.7295 17.0078 21.6891C19.0979 21.6218 21.1745 21.6756 23.2645 21.7295C25.894 21.7967 35.5487 20.8012 36.3308 24.7699C30.6944 24.5681 25.0444 24.4471 19.408 24.5412C16.1853 24.595 12.9625 24.6489 9.75326 24.8103L9.73977 24.7968ZM32.2046 19.8191C28.4425 19.3886 24.0871 19.8191 20.5946 19.7787C19.017 19.7653 16.2797 19.6307 13.7311 19.9132C11.1691 15.0162 34.443 14.9624 32.2181 19.8191H32.2046ZM23.8848 9.94423C23.8848 9.94423 23.9118 10.0115 23.9252 10.0519C23.8983 10.0922 23.8713 10.1326 23.8309 10.1595C23.305 10.6976 22.9409 11.0071 22.1858 11.2223C21.8217 11.3299 21.4441 11.3972 21.0666 11.4779C20.9452 10.5765 20.8104 9.66171 20.689 8.76033C21.2688 8.66615 21.8622 8.61234 22.4689 8.58543C22.887 8.57198 23.305 8.58543 23.7095 8.59889C23.7634 9.04285 23.8309 9.50027 23.8848 9.94423ZM22.6847 13.0385C23.4668 12.8367 24.2489 12.5138 24.8287 11.9353C24.9501 11.8143 25.0444 11.6663 25.1388 11.5183C25.2872 11.6394 25.4355 11.747 25.5703 11.895C26.2311 12.6753 26.3524 13.617 26.1771 14.5588C24.8961 14.4511 23.7634 14.4377 23.0353 14.4242C22.2667 14.4242 21.0531 14.4242 19.7047 14.5184C19.2057 13.617 22.2127 13.1462 22.6712 13.0251L22.6847 13.0385ZM20.1092 4.71084C20.0283 4.1727 19.3945 3.9709 18.9495 4.05162C16.2662 4.50904 13.5828 4.96645 10.9129 5.42387C10.7106 4.76465 10.5353 4.10543 10.4005 3.43276C13.6907 2.55829 17.1292 2.00669 20.5407 1.95288C22.7117 1.92597 22.9274 2.6121 23.1836 4.56285C23.278 5.27588 23.3724 6.00237 23.4668 6.7154C23.1297 6.7154 22.8061 6.6885 22.4689 6.70195C21.7812 6.72886 21.0935 6.79612 20.4328 6.90375C20.3249 6.17726 20.2306 5.43732 20.1227 4.71084H20.1092ZM18.8417 9.15048C18.9765 10.1595 19.1248 11.155 19.2597 12.1641C18.3562 12.756 17.6416 13.7112 17.8034 14.7202C13.9604 15.218 10.0229 16.5902 11.7354 20.2361C9.05207 20.8415 7.08337 22.1465 7.79804 24.9179C7.0564 24.9717 6.32825 25.0121 5.58661 25.0794C6.39567 17.7203 11.7489 11.1012 18.8552 9.16393L18.8417 9.15048ZM3.65836 27.1781C4.25167 26.909 5.33041 26.9898 5.99114 26.9359C7.67668 26.788 9.36221 26.6938 11.0477 26.6131C14.2031 26.4516 17.3854 26.4651 20.5407 26.4113C24.3298 26.3574 28.0784 26.4516 31.854 26.5996C34.3621 26.6938 36.8836 26.64 39.4052 26.788C40.2143 26.8418 42.5201 26.6669 43.0729 27.1512C43.464 27.4875 43.7067 28.7253 43.8685 29.7208C29.8314 29.5863 15.9965 29.3845 1.97282 30.1917C2.0807 28.8463 2.32341 27.797 3.67184 27.1781H3.65836ZM35.4273 72.6777C35.2386 73.7809 35.2521 75.4895 34.834 76.6868C34.7127 76.7003 34.5644 76.7137 34.3351 76.6868C33.6339 76.6196 32.8518 76.7406 32.1372 76.7541C27.984 76.8617 23.8174 76.929 19.6642 76.929C17.736 76.929 15.7942 76.929 13.866 76.8483C13.3536 76.8214 12.5984 76.9155 12.113 76.7406C12.0186 76.7003 11.9512 76.6868 11.8838 76.6734C11.5197 75.7854 11.5736 74.0365 11.4658 73.2562C11.1691 71.2382 10.8725 69.2336 10.5758 67.2156C8.84981 55.4438 7.15079 43.672 5.4248 31.9003C17.1426 31.3621 28.7526 31.4563 40.4705 31.5774C39.4592 45.3537 37.7062 59.0628 35.4273 72.6911V72.6777Z" fill="#92B65B"/>
<path d="M12.0273 49.3448C12.1486 55.0203 17.6094 60.4268 23.3937 60.0368C28.8275 59.6602 34.2747 54.6437 33.8028 49.0085C33.3039 43.1447 27.7084 38.9755 22.0588 39.0562C16.5442 39.7152 11.8924 43.4137 12.0273 49.3448ZM31.6724 47.7174C32.9938 52.4246 29.0162 56.8628 24.5802 57.9253C19.7802 59.0685 14.7374 55.0203 14.0498 50.3265C13.2947 45.1352 17.1509 41.5174 22.0588 40.9391C26.2387 40.8853 30.4994 43.5482 31.6724 47.7174Z" fill="#92B65B"/>
</g>
<defs>
<clipPath id="clip0_4402_4">
<rect width="45.8567" height="79" fill="white"/>
</clipPath>
</defs>
</svg>
