<svg width="47" height="79" viewBox="0 0 47 79" fill="none" xmlns="http://www.w3.org/2000/svg">
<g clip-path="url(#clip0_4405_256)">
<path d="M46.3507 30.7702C46.3507 30.7702 46.3507 30.676 46.3507 30.6222C46.3507 30.5549 46.3642 30.4877 46.3507 30.4204C45.7574 26.7341 44.8539 25.5771 42.7369 25.1466C42.211 15.6754 35.2801 8.00693 26.0568 6.86339C25.9085 4.22651 25.5175 1.18603 23.5083 0.365372C21.7419 -0.361114 19.3282 0.190477 17.4943 0.365372C14.784 0.620988 12.1545 1.10531 9.52511 1.85871C8.98573 2.00669 8.79695 2.50447 8.86438 3.0157C9.05316 4.32069 9.36329 5.51805 9.80828 6.75576C9.99706 7.26699 10.4286 7.50916 10.9679 7.41498C13.5974 6.95757 16.2403 6.5136 18.8697 6.05618C18.9237 6.47324 18.9911 6.87684 19.045 7.2939C10.9275 9.39264 4.91348 16.9535 4.13139 25.3484C1.35363 25.9 0.760317 27.3126 0.504115 31.1738C0.477147 31.4832 0.585021 31.7119 0.760317 31.8599C0.908644 32.0348 1.13788 32.129 1.44802 32.1155C2.32449 32.0617 3.20097 32.0214 4.06397 31.981C4.06397 32.0348 4.05048 32.0886 4.06397 32.1424C5.61466 42.7438 7.15187 53.3585 8.70256 63.9733C9.25542 67.7537 9.79479 71.5341 10.3746 75.3146C10.5769 76.6734 10.442 77.7496 11.6152 78.4761C13.1793 79.4313 17.0898 78.7856 18.8428 78.799C22.8341 78.8259 26.8389 78.7587 30.8303 78.6779C32.0978 78.651 35.2262 79.1757 36.3319 78.4223C37.977 77.3057 37.8421 72.5566 38.1118 70.8884C40.2154 57.852 41.8739 44.7483 42.8448 31.5774C43.7078 31.5774 44.5843 31.5908 45.4473 31.6043C45.9731 31.6043 46.2563 31.2545 46.3237 30.8509C46.3237 30.824 46.3237 30.7971 46.3372 30.7702H46.3507ZM40.8491 24.9179C40.2288 24.8776 39.5546 24.8507 38.786 24.8238C38.7456 22.4963 37.95 21.0433 35.4824 20.3303C35.2262 20.2496 34.9295 20.2092 34.6598 20.1419C36.1431 16.6575 32.2866 15.2987 28.5649 14.774C28.7807 13.469 28.538 12.1371 27.7424 11.0205C27.4188 10.5631 26.8524 9.94423 26.2187 9.6079C26.1917 9.35228 26.1782 9.06976 26.1512 8.76033C34.1879 9.93078 40.2558 16.6037 40.8221 24.9179H40.8491ZM10.2398 24.7968C9.45768 21.7833 16.0515 21.7295 17.5078 21.6891C19.5979 21.6218 21.6745 21.6756 23.7645 21.7295C26.394 21.7967 36.0487 20.8012 36.8308 24.7699C31.1944 24.5681 25.5444 24.4471 19.908 24.5412C16.6853 24.595 13.4625 24.6489 10.2533 24.8103L10.2398 24.7968ZM32.7046 19.8191C28.9425 19.3886 24.5871 19.8191 21.0946 19.7787C19.517 19.7653 16.7797 19.6307 14.2311 19.9132C11.6691 15.0162 34.943 14.9624 32.7181 19.8191H32.7046ZM24.3848 9.94423C24.3848 9.94423 24.4118 10.0115 24.4252 10.0519C24.3983 10.0922 24.3713 10.1326 24.3309 10.1595C23.805 10.6976 23.4409 11.0071 22.6858 11.2223C22.3217 11.3299 21.9441 11.3972 21.5666 11.4779C21.4452 10.5765 21.3104 9.66171 21.189 8.76033C21.7688 8.66615 22.3622 8.61234 22.9689 8.58543C23.387 8.57198 23.805 8.58543 24.2095 8.59889C24.2634 9.04285 24.3309 9.50027 24.3848 9.94423ZM23.1847 13.0385C23.9668 12.8367 24.7489 12.5138 25.3287 11.9353C25.4501 11.8143 25.5444 11.6663 25.6388 11.5183C25.7872 11.6394 25.9355 11.747 26.0703 11.895C26.7311 12.6753 26.8524 13.617 26.6771 14.5588C25.3961 14.4511 24.2634 14.4377 23.5353 14.4242C22.7667 14.4242 21.5531 14.4242 20.2047 14.5184C19.7057 13.617 22.7127 13.1462 23.1712 13.0251L23.1847 13.0385ZM20.6092 4.71084C20.5283 4.1727 19.8945 3.9709 19.4495 4.05162C16.7662 4.50904 14.0828 4.96645 11.4129 5.42387C11.2106 4.76465 11.0353 4.10543 10.9005 3.43276C14.1907 2.55829 17.6292 2.00669 21.0407 1.95288C23.2117 1.92597 23.4274 2.6121 23.6836 4.56285C23.778 5.27588 23.8724 6.00237 23.9668 6.7154C23.6297 6.7154 23.3061 6.6885 22.9689 6.70195C22.2812 6.72886 21.5935 6.79612 20.9328 6.90375C20.8249 6.17726 20.7306 5.43732 20.6227 4.71084H20.6092ZM19.3417 9.15048C19.4765 10.1595 19.6248 11.155 19.7597 12.1641C18.8562 12.756 18.1416 13.7112 18.3034 14.7202C14.4604 15.218 10.5229 16.5902 12.2354 20.2361C9.55207 20.8415 7.58337 22.1465 8.29804 24.9179C7.5564 24.9717 6.82825 25.0121 6.08661 25.0794C6.89567 17.7203 12.2489 11.1012 19.3552 9.16393L19.3417 9.15048ZM4.15836 27.1781C4.75167 26.909 5.83041 26.9898 6.49114 26.9359C8.17668 26.788 9.86221 26.6938 11.5477 26.6131C14.7031 26.4516 17.8854 26.4651 21.0407 26.4113C24.8298 26.3574 28.5784 26.4516 32.354 26.5996C34.8621 26.6938 37.3836 26.64 39.9052 26.788C40.7143 26.8418 43.0201 26.6669 43.5729 27.1512C43.964 27.4875 44.2067 28.7253 44.3685 29.7208C30.3314 29.5863 16.4965 29.3845 2.47282 30.1917C2.5807 28.8463 2.82341 27.797 4.17184 27.1781H4.15836ZM35.9273 72.6777C35.7386 73.7809 35.7521 75.4895 35.334 76.6868C35.2127 76.7003 35.0644 76.7137 34.8351 76.6868C34.1339 76.6196 33.3518 76.7406 32.6372 76.7541C28.484 76.8617 24.3174 76.929 20.1642 76.929C18.236 76.929 16.2942 76.929 14.366 76.8483C13.8536 76.8214 13.0984 76.9155 12.613 76.7406C12.5186 76.7003 12.4512 76.6868 12.3838 76.6734C12.0197 75.7854 12.0736 74.0365 11.9658 73.2562C11.6691 71.2382 11.3725 69.2336 11.0758 67.2156C9.34981 55.4438 7.65079 43.672 5.9248 31.9003C17.6426 31.3621 29.2526 31.4563 40.9705 31.5774C39.9592 45.3537 38.2062 59.0628 35.9273 72.6911V72.6777Z" fill="#92B65B"/>
<path d="M12.527 49.3448C12.6484 55.0203 18.1091 60.4268 23.8935 60.0368C29.3272 59.6602 34.7745 54.6437 34.3026 49.0085C33.8037 43.1447 28.2081 38.9755 22.5586 39.0562C17.0439 39.7152 12.3922 43.4137 12.527 49.3448ZM32.1722 47.7174C33.4936 52.4246 29.516 56.8628 25.08 57.9253C20.2799 59.0685 15.2372 55.0203 14.5495 50.3265C13.7945 45.1352 17.6507 41.5174 22.5586 40.9391C26.7384 40.8853 30.9991 43.5482 32.1722 47.7174Z" fill="#92B65B"/>
</g>
<defs>
<clipPath id="clip0_4405_256">
<rect width="45.8567" height="79" fill="white" transform="translate(0.5)"/>
</clipPath>
</defs>
</svg>
