<svg width="47" height="80" viewBox="0 0 47 80" fill="none" xmlns="http://www.w3.org/2000/svg">
<g clip-path="url(#clip0_4405_378)">
<path d="M46.3507 31.0725C46.3507 31.0725 46.3507 30.9783 46.3507 30.9245C46.3507 30.8572 46.3642 30.79 46.3507 30.7227C45.7574 27.0365 44.8539 25.8795 42.7369 25.4489C42.211 15.9777 35.2801 8.30924 26.0568 7.1657C25.9085 4.52882 25.5175 1.48834 23.5083 0.667679C21.7419 -0.0588073 19.3282 0.492784 17.4943 0.667679C14.784 0.923295 12.1545 1.40762 9.52511 2.16101C8.98573 2.309 8.79695 2.80678 8.86438 3.31801C9.05315 4.62299 9.36329 5.82035 9.80828 7.05807C9.99706 7.5693 10.4286 7.81146 10.9679 7.71729C13.5974 7.25987 16.2403 6.81591 18.8697 6.35849C18.9237 6.77555 18.9911 7.17915 19.045 7.59621C10.9275 9.69495 4.91348 17.2558 4.13139 25.6507C1.35363 26.2023 0.760317 27.615 0.504115 31.4761C0.477147 31.7855 0.585021 32.0142 0.760317 32.1622C0.908644 32.3371 1.13788 32.4313 1.44802 32.4178C2.32449 32.364 3.20097 32.3237 4.06397 32.2833C4.06397 32.3371 4.05048 32.3909 4.06397 32.4447C5.61466 43.0461 7.15187 53.6608 8.70256 64.2756C9.25542 68.056 9.79479 71.8365 10.3746 75.6169C10.5769 76.9757 10.442 78.0519 11.6152 78.7784C13.1793 79.7336 17.0898 79.0879 18.8428 79.1013C22.8341 79.1282 26.8389 79.061 30.8303 78.9802C32.0978 78.9533 35.2262 79.478 36.3319 78.7246C37.977 77.608 37.8421 72.8589 38.1118 71.1907C40.2154 58.1543 41.8739 45.0506 42.8448 31.8797C43.7078 31.8797 44.5843 31.8931 45.4473 31.9066C45.9731 31.9066 46.2563 31.5568 46.3237 31.1532C46.3237 31.1263 46.3237 31.0994 46.3372 31.0725H46.3507ZM40.8491 25.2202C40.2288 25.1799 39.5546 25.153 38.786 25.1261C38.7456 22.7986 37.95 21.3456 35.4824 20.6326C35.2262 20.5519 34.9295 20.5115 34.6598 20.4443C36.1431 16.9598 32.2866 15.601 28.5649 15.0763C28.7807 13.7713 28.538 12.4395 27.7424 11.3228C27.4188 10.8654 26.8524 10.2465 26.2187 9.9102C26.1917 9.65459 26.1782 9.37206 26.1512 9.06264C34.1879 10.2331 40.2558 16.906 40.8221 25.2202H40.8491ZM10.2398 25.0992C9.45768 22.0856 16.0515 22.0318 17.5078 21.9914C19.5979 21.9241 21.6745 21.978 23.7645 22.0318C26.394 22.099 36.0487 21.1035 36.8308 25.0722C31.1944 24.8704 25.5444 24.7494 19.908 24.8435C16.6853 24.8974 13.4625 24.9512 10.2533 25.1126L10.2398 25.0992ZM32.7046 20.1214C28.9425 19.6909 24.5871 20.1214 21.0946 20.081C19.517 20.0676 16.7797 19.933 14.2311 20.2155C11.6691 15.3185 34.943 15.2647 32.7181 20.1214H32.7046ZM24.3848 10.2465C24.3848 10.2465 24.4118 10.3138 24.4252 10.3542C24.3983 10.3945 24.3713 10.4349 24.3309 10.4618C23.805 10.9999 23.4409 11.3094 22.6858 11.5246C22.3217 11.6322 21.9441 11.6995 21.5666 11.7802C21.4452 10.8789 21.3104 9.96402 21.189 9.06264C21.7688 8.96846 22.3622 8.91465 22.9689 8.88774C23.387 8.87429 23.805 8.88774 24.2095 8.90119C24.2634 9.34516 24.3309 9.80258 24.3848 10.2465ZM23.1847 13.3408C23.9668 13.139 24.7489 12.8161 25.3287 12.2376C25.4501 12.1166 25.5444 11.9686 25.6388 11.8206C25.7872 11.9417 25.9355 12.0493 26.0703 12.1973C26.7311 12.9776 26.8524 13.9193 26.6771 14.8611C25.3961 14.7534 24.2634 14.74 23.5353 14.7265C22.7667 14.7265 21.5531 14.7265 20.2047 14.8207C19.7057 13.9193 22.7127 13.4485 23.1712 13.3274L23.1847 13.3408ZM20.6092 5.01315C20.5283 4.47501 19.8945 4.27321 19.4495 4.35393C16.7662 4.81134 14.0828 5.26876 11.4129 5.72618C11.2106 5.06696 11.0353 4.40774 10.9005 3.73507C14.1907 2.86059 17.6292 2.309 21.0407 2.25519C23.2117 2.22828 23.4274 2.91441 23.6836 4.86516C23.778 5.57819 23.8724 6.30468 23.9668 7.01771C23.6297 7.01771 23.3061 6.9908 22.9689 7.00426C22.2812 7.03116 21.5935 7.09843 20.9328 7.20606C20.8249 6.47957 20.7306 5.73963 20.6227 5.01315H20.6092ZM19.3417 9.45279C19.4765 10.4618 19.6248 11.4573 19.7597 12.4664C18.8562 13.0583 18.1416 14.0135 18.3034 15.0225C14.4604 15.5203 10.5229 16.8925 12.2354 20.5384C9.55207 21.1438 7.58337 22.4488 8.29804 25.2202C7.5564 25.274 6.82825 25.3144 6.08661 25.3817C6.89567 18.0226 12.2489 11.4035 19.3552 9.46624L19.3417 9.45279ZM4.15836 27.4804C4.75167 27.2113 5.83041 27.2921 6.49114 27.2383C8.17668 27.0903 9.86221 26.9961 11.5477 26.9154C14.7031 26.7539 17.8854 26.7674 21.0407 26.7136C24.8298 26.6598 28.5784 26.7539 32.354 26.9019C34.8621 26.9961 37.3836 26.9423 39.9052 27.0903C40.7143 27.1441 43.0201 26.9692 43.5729 27.4535C43.964 27.7898 44.2067 29.0276 44.3685 30.0231C30.3314 29.8886 16.4965 29.6868 2.47282 30.494C2.5807 29.1486 2.82341 28.0993 4.17184 27.4804H4.15836ZM35.9273 72.98C35.7386 74.0832 35.7521 75.7918 35.334 76.9891C35.2127 77.0026 35.0644 77.016 34.8351 76.9891C34.1339 76.9219 33.3518 77.0429 32.6372 77.0564C28.484 77.164 24.3174 77.2313 20.1642 77.2313C18.236 77.2313 16.2942 77.2313 14.366 77.1506C13.8536 77.1237 13.0984 77.2178 12.613 77.0429C12.5186 77.0026 12.4512 76.9891 12.3838 76.9757C12.0197 76.0877 12.0736 74.3388 11.9658 73.5585C11.6691 71.5405 11.3725 69.5359 11.0758 67.5179C9.34981 55.7461 7.65079 43.9743 5.9248 32.2026C17.6426 31.6644 29.2526 31.7586 40.9705 31.8797C39.9592 45.656 38.2062 59.3651 35.9273 72.9935V72.98Z" fill="#92B65B"/>
<path d="M12.527 49.647C12.6484 55.3226 18.1091 60.7291 23.8934 60.3391C29.3272 59.9625 34.7745 54.946 34.3026 49.3108C33.8037 43.447 28.2081 39.2778 22.5586 39.3585C17.0439 40.0175 12.3922 43.716 12.527 49.647ZM32.1722 48.0197C33.4936 52.7269 29.516 57.1651 25.08 58.2276C20.2799 59.3707 15.2372 55.3226 14.5495 50.6288C13.7945 45.4375 17.6507 41.8197 22.5586 41.2414C26.7384 41.1876 30.9991 43.8505 32.1722 48.0197Z" fill="#92B65B"/>
</g>
<defs>
<clipPath id="clip0_4405_378">
<rect width="45.8567" height="79" fill="white" transform="translate(0.5 0.302307)"/>
</clipPath>
</defs>
</svg>
