<svg width="67" height="67" viewBox="0 0 67 67" fill="none" xmlns="http://www.w3.org/2000/svg">
<g clip-path="url(#clip0_4402_8)">
<path d="M56.8025 67H9.98884C9.15644 67 8.479 66.3285 8.479 65.5034V39.561C8.479 38.7359 9.15644 38.0644 9.98884 38.0644H56.8025C57.6349 38.0644 58.3123 38.7359 58.3123 39.561V65.5034C58.3123 66.3285 57.6349 67 56.8025 67ZM11.4987 64.0024H55.2927V41.0532H11.4987V64.0024Z" fill="#92B65B"/>
<path d="M65.2814 41.0576H1.50983C0.677432 41.0576 0 40.3861 0 39.561V28.2334C0 27.4083 0.677432 26.7368 1.50983 26.7368H65.2814C66.1138 26.7368 66.7913 27.4083 66.7913 28.2334V39.561C66.7913 40.3861 66.1138 41.0576 65.2814 41.0576ZM3.01967 38.06H63.7716V29.7256H3.01967V38.06Z" fill="#92B65B"/>
<path d="M29.0493 29.2334H37.7377V64.5034H29.0493V29.2334Z" fill="white" stroke="#92B65B" stroke-width="2"/>
<path d="M33.3979 25.7098C33.2252 25.7098 33.0525 25.6791 32.8843 25.622C21.5362 21.5667 15.6075 15.9008 14.753 8.30367C14.3634 4.82333 16.1743 1.78186 19.3711 0.544209C22.3287 -0.596889 26.535 -0.0965615 29.2669 3.59884C33.5219 9.34822 34.8457 23.4847 34.8989 24.0815C34.9431 24.5907 34.7262 25.0866 34.3188 25.4026C34.0488 25.6089 33.7255 25.7142 33.3979 25.7142V25.7098ZM22.3199 2.99318C21.6602 2.99318 21.0314 3.11607 20.4691 3.33112C18.5298 4.08161 17.5159 5.8152 17.755 7.97012C18.4103 13.8248 22.9486 18.4024 31.6091 21.9266C31.0557 17.7177 29.6255 9.14194 26.8317 5.36754C25.5786 3.67345 23.874 2.99757 22.3155 2.99757L22.3199 2.99318Z" fill="#92B65B"/>
<path d="M27.4957 27.2459C18.7998 27.2459 9.55481 20.294 9.06776 19.9209C8.40804 19.4162 8.28407 18.477 8.79325 17.823C9.30243 17.1691 10.2499 17.0418 10.9097 17.5466C11.0469 17.6475 24.5734 27.8164 32.6096 22.936C33.3181 22.5059 34.2523 22.7254 34.6862 23.432C35.1245 24.1386 34.8987 25.0602 34.1859 25.4903C32.1137 26.7456 29.8246 27.2459 27.5001 27.2459H27.4957Z" fill="#92B65B"/>
<path d="M33.398 23.7349C32.5744 23.7349 31.9058 23.0809 31.8881 22.269C31.8793 21.852 31.7597 12.0474 37.9053 7.9877C41.6378 5.52117 45.4899 6.76321 47.655 9.08052C49.8069 11.3847 50.1168 14.5007 48.4077 16.66C45.2331 20.6714 38.782 23.7129 33.4024 23.7392H33.3935L33.398 23.7349ZM42.1736 9.64229C41.3633 9.64229 40.4822 9.88368 39.579 10.4762C36.059 12.8023 35.1912 18.003 34.9742 20.6276C39.0698 20.0877 43.7587 17.6783 46.0301 14.808C46.9378 13.6625 46.3843 12.1264 45.4368 11.1082C44.6885 10.305 43.524 9.6379 42.1692 9.6379L42.1736 9.64229Z" fill="#92B65B"/>
<path d="M41.6202 26.5261C38.6625 26.5261 35.5676 25.6571 32.508 23.4539C31.835 22.9668 31.6845 22.0319 32.1715 21.3605C32.663 20.6933 33.6061 20.5441 34.2835 21.0269C38.7333 24.2308 43.6348 24.3888 48.855 21.4965C52.9107 19.2494 55.6027 15.9929 55.6293 15.9578C56.1562 15.317 57.1081 15.2161 57.7546 15.7384C58.401 16.2606 58.5029 17.2042 57.976 17.845C54.9696 21.5185 48.7 26.5217 41.6202 26.5217V26.5261Z" fill="#92B65B"/>
</g>
<defs>
<clipPath id="clip0_4402_8">
<rect width="66.7913" height="67" fill="white"/>
</clipPath>
</defs>
</svg>
