<svg width="68" height="68" viewBox="0 0 68 68" fill="none" xmlns="http://www.w3.org/2000/svg">
<g clip-path="url(#clip0_4405_269)">
<path d="M57.3025 67.3023H10.4888C9.65644 67.3023 8.979 66.6308 8.979 65.8057V39.8633C8.979 39.0382 9.65644 38.3667 10.4888 38.3667H57.3025C58.1349 38.3667 58.8123 39.0382 58.8123 39.8633V65.8057C58.8123 66.6308 58.1349 67.3023 57.3025 67.3023ZM11.9987 64.3047H55.7927V41.3555H11.9987V64.3047Z" fill="#92B65B"/>
<path d="M65.7814 41.3599H2.00983C1.17743 41.3599 0.5 40.6884 0.5 39.8633V28.5357C0.5 27.7106 1.17743 27.0391 2.00983 27.0391H65.7814C66.6138 27.0391 67.2913 27.7106 67.2913 28.5357V39.8633C67.2913 40.6884 66.6138 41.3599 65.7814 41.3599ZM3.51967 38.3623H64.2716V30.0279H3.51967V38.3623Z" fill="#92B65B"/>
<path d="M29.5493 29.5357H38.2377V64.8057H29.5493V29.5357Z" fill="white" stroke="#92B65B" stroke-width="2"/>
<path d="M33.8979 26.0121C33.7252 26.0121 33.5525 25.9814 33.3843 25.9243C22.0362 21.8691 16.1075 16.2031 15.253 8.60598C14.8634 5.12563 16.6743 2.08417 19.8711 0.846516C22.8287 -0.294582 27.035 0.205746 29.7669 3.90115C34.0219 9.65053 35.3457 23.787 35.3989 24.3839C35.4431 24.893 35.2262 25.3889 34.8188 25.7049C34.5488 25.9112 34.2255 26.0165 33.8979 26.0165V26.0121ZM22.8199 3.29549C22.1602 3.29549 21.5314 3.41838 20.9691 3.63343C19.0298 4.38392 18.0159 6.11751 18.255 8.27243C18.9103 14.1271 23.4486 18.7047 32.1091 22.2289C31.5557 18.02 30.1255 9.44425 27.3317 5.66985C26.0786 3.97576 24.374 3.29988 22.8155 3.29988L22.8199 3.29549Z" fill="#92B65B"/>
<path d="M27.9957 27.5482C19.2998 27.5482 10.0548 20.5963 9.56776 20.2233C8.90804 19.7185 8.78407 18.7793 9.29325 18.1254C9.80243 17.4714 10.7499 17.3442 11.4097 17.8489C11.5469 17.9498 25.0734 28.1188 33.1096 23.2384C33.8181 22.8083 34.7523 23.0277 35.1862 23.7343C35.6245 24.4409 35.3987 25.3626 34.6859 25.7927C32.6137 27.0479 30.3246 27.5482 28.0001 27.5482H27.9957Z" fill="#92B65B"/>
<path d="M33.898 24.0371C33.0744 24.0371 32.4058 23.3832 32.3881 22.5713C32.3793 22.1543 32.2597 12.3497 38.4053 8.28998C42.1378 5.82345 45.9899 7.06549 48.155 9.3828C50.3069 11.6869 50.6168 14.803 48.9077 16.9623C45.7331 20.9737 39.282 24.0152 33.9024 24.0415H33.8935L33.898 24.0371ZM42.6736 9.94457C41.8633 9.94457 40.9822 10.186 40.079 10.7784C36.559 13.1045 35.6912 18.3053 35.4742 20.9298C39.5698 20.39 44.2587 17.9805 46.5301 15.1102C47.4378 13.9647 46.8843 12.4287 45.9368 11.4104C45.1885 10.6073 44.024 9.94018 42.6692 9.94018L42.6736 9.94457Z" fill="#92B65B"/>
<path d="M42.1199 26.8285C39.1623 26.8285 36.0673 25.9595 33.0078 23.7563C32.3348 23.2691 32.1843 22.3343 32.6713 21.6628C33.1628 20.9957 34.1059 20.8465 34.7833 21.3292C39.2331 24.5331 44.1345 24.6911 49.3547 21.7988C53.4105 19.5518 56.1025 16.2952 56.1291 16.2601C56.6559 15.6194 57.6079 15.5184 58.2543 16.0407C58.9008 16.563 59.0026 17.5066 58.4757 18.1473C55.4693 21.8208 49.1998 26.8241 42.1199 26.8241V26.8285Z" fill="#92B65B"/>
</g>
<defs>
<clipPath id="clip0_4405_269">
<rect width="66.7913" height="67" fill="white" transform="translate(0.5 0.302307)"/>
</clipPath>
</defs>
</svg>
