<svg width="68" height="68" viewBox="0 0 68 68" fill="none" xmlns="http://www.w3.org/2000/svg">
<g clip-path="url(#clip0_4405_391)">
<path d="M57.3025 67.0734H10.4888C9.65644 67.0734 8.979 66.4019 8.979 65.5768V39.6343C8.979 38.8092 9.65644 38.1378 10.4888 38.1378H57.3025C58.1349 38.1378 58.8123 38.8092 58.8123 39.6343V65.5768C58.8123 66.4019 58.1349 67.0734 57.3025 67.0734ZM11.9987 64.0758H55.7927V41.1266H11.9987V64.0758Z" fill="#92B65B"/>
<path d="M65.7814 41.131H2.00983C1.17743 41.131 0.5 40.4595 0.5 39.6344V28.3068C0.5 27.4817 1.17743 26.8102 2.00983 26.8102H65.7814C66.6138 26.8102 67.2913 27.4817 67.2913 28.3068V39.6344C67.2913 40.4595 66.6138 41.131 65.7814 41.131ZM3.51967 38.1334H64.2716V29.799H3.51967V38.1334Z" fill="#92B65B"/>
<path d="M29.5493 64.5768V29.3068H38.2377V64.5768H29.5493Z" fill="white" stroke="#92B65B" stroke-width="2"/>
<path d="M33.8979 25.7832C33.7252 25.7832 33.5525 25.7524 33.3843 25.6954C22.0362 21.6401 16.1075 15.9741 15.253 8.37704C14.8634 4.89669 16.6743 1.85523 19.8711 0.617573C22.8287 -0.523525 27.035 -0.0231972 29.7669 3.6722C34.0219 9.42158 35.3457 23.558 35.3989 24.1549C35.4431 24.664 35.2262 25.16 34.8188 25.476C34.5488 25.6822 34.2255 25.7876 33.8979 25.7876V25.7832ZM22.8199 3.06654C22.1602 3.06654 21.5314 3.18943 20.9691 3.40449C19.0298 4.15498 18.0159 5.88857 18.255 8.04349C18.9103 13.8982 23.4486 18.4758 32.1091 22C31.5557 17.7911 30.1255 9.21531 27.3317 5.44091C26.0786 3.74681 24.374 3.07093 22.8155 3.07093L22.8199 3.06654Z" fill="#92B65B"/>
<path d="M27.9957 27.3192C19.2998 27.3192 10.0548 20.3673 9.56776 19.9943C8.90804 19.4896 8.78407 18.5503 9.29325 17.8964C9.80243 17.2425 10.7499 17.1152 11.4097 17.6199C11.5469 17.7209 25.0734 27.8898 33.1096 23.0094C33.8181 22.5793 34.7523 22.7987 35.1862 23.5053C35.6245 24.212 35.3987 25.1336 34.6859 25.5637C32.6137 26.8189 30.3246 27.3192 28.0001 27.3192H27.9957Z" fill="#92B65B"/>
<path d="M33.898 23.8082C33.0744 23.8082 32.4058 23.1543 32.3881 22.3423C32.3793 21.9254 32.2597 12.1207 38.4053 8.06106C42.1378 5.59454 45.9899 6.83658 48.155 9.15389C50.3069 11.458 50.6168 14.5741 48.9077 16.7334C45.7331 20.7448 39.282 23.7863 33.9024 23.8126H33.8935L33.898 23.8082ZM42.6736 9.71566C41.8633 9.71566 40.9822 9.95704 40.079 10.5495C36.559 12.8756 35.6912 18.0764 35.4742 20.7009C39.5698 20.1611 44.2587 17.7516 46.5301 14.8813C47.4378 13.7358 46.8843 12.1997 45.9368 11.1815C45.1885 10.3784 44.024 9.71127 42.6692 9.71127L42.6736 9.71566Z" fill="#92B65B"/>
<path d="M42.1199 26.5995C39.1623 26.5995 36.0673 25.7305 33.0078 23.5273C32.3348 23.0401 32.1843 22.1053 32.6713 21.4338C33.1628 20.7667 34.1059 20.6175 34.7833 21.1003C39.2331 24.3041 44.1345 24.4621 49.3547 21.5699C53.4105 19.3228 56.1025 16.0663 56.1291 16.0312C56.6559 15.3904 57.6079 15.2894 58.2543 15.8117C58.9008 16.334 59.0026 17.2776 58.4757 17.9184C55.4693 21.5918 49.1998 26.5951 42.1199 26.5951V26.5995Z" fill="#92B65B"/>
</g>
<defs>
<clipPath id="clip0_4405_391">
<rect width="66.7913" height="67" fill="white" transform="translate(0.5 0.0733643)"/>
</clipPath>
</defs>
</svg>
